<?xml version="1.0" encoding="UTF-8" standalone="no"?>
<!-- Created with Inkscape (http://www.inkscape.org/) -->

<svg
   xmlns:dc="http://purl.org/dc/elements/1.1/"
   xmlns:cc="http://creativecommons.org/ns#"
   xmlns:rdf="http://www.w3.org/1999/02/22-rdf-syntax-ns#"
   xmlns:svg="http://www.w3.org/2000/svg"
   xmlns="http://www.w3.org/2000/svg"
   xmlns:sodipodi="http://sodipodi.sourceforge.net/DTD/sodipodi-0.dtd"
   xmlns:inkscape="http://www.inkscape.org/namespaces/inkscape"
   width="1024"
   height="768"
   viewBox="0 0 1024 768"
   id="svg2"
   version="1.1"
   inkscape:version="0.92.0 r15299"
   sodipodi:docname="Quintus_X62_splash.svg"
   inkscape:export-filename="/home/quintus/Desktop/Quintus_X62_splash/Quintus_X62_SXGAplus.png"
   inkscape:export-xdpi="123.04688"
   inkscape:export-ydpi="123.04688">
  <defs
     id="defs4" />
  <sodipodi:namedview
     id="base"
     pagecolor="#000000"
     bordercolor="#666666"
     borderopacity="1.0"
     inkscape:pageopacity="0"
     inkscape:pageshadow="2"
     inkscape:zoom="0.70710678"
     inkscape:cx="516.95287"
     inkscape:cy="403.80905"
     inkscape:document-units="px"
     inkscape:current-layer="layer1"
     showgrid="false"
     units="px"
     showborder="true"
     inkscape:snap-global="true"
     inkscape:window-width="1400"
     inkscape:window-height="988"
     inkscape:window-x="0"
     inkscape:window-y="27"
     inkscape:window-maximized="1"
     showguides="true"
     inkscape:guide-bbox="true" />
  <metadata
     id="metadata7">
    <rdf:RDF>
      <cc:Work
         rdf:about="">
        <dc:format>image/svg+xml</dc:format>
        <dc:type
           rdf:resource="http://purl.org/dc/dcmitype/StillImage" />
        <dc:title></dc:title>
      </cc:Work>
    </rdf:RDF>
  </metadata>
  <g
     inkscape:label="Layer 1"
     inkscape:groupmode="layer"
     id="layer1"
     transform="translate(0,-284.36216)">
    <path
       inkscape:connector-curvature="0"
       style="opacity:1;fill:#000000;fill-opacity:1;fill-rule:nonzero;stroke:none;stroke-width:2;stroke-linecap:butt;stroke-linejoin:miter;stroke-miterlimit:4;stroke-dasharray:none;stroke-opacity:0.38207547"
       d="M 556.80469,284.36212 H 0 V 1052.3622 H 1024 V 284.36212 H 738.00586 c 2.25925,2.64845 4.58653,5.29686 6.51562,7.94727 2.83699,3.89776 5.33347,7.8029 7.54102,11.73828 2.20755,3.93538 4.12585,7.8994 5.80469,11.91211 1.67884,4.0127 3.11829,8.07532 4.36914,12.20507 1.25085,4.12976 2.31275,8.32676 3.23633,12.61329 0.92358,4.28652 1.70922,8.66151 2.40625,13.14453 1.39406,8.96603 2.43515,18.36517 3.52734,28.35547 l 21.67578,157.57226 97.87108,-89.52148 40.2656,44.02148 -188.90426,172.78711 c -10.44956,-71.92517 -18.78514,-129.29188 -24.93554,-172.58594 -3.07521,-21.64703 -5.60494,-39.77597 -7.57813,-54.44726 -1.97319,-14.6713 -3.3911,-25.8862 -4.24414,-33.70313 -0.85304,-7.81692 -1.46547,-15.03862 -2.20898,-21.80859 -0.37176,-3.38498 -0.77566,-6.6572 -1.25977,-9.83399 -0.48411,-3.17678 -1.0467,-6.25744 -1.73633,-9.26171 -0.68962,-3.00427 -1.50585,-5.93138 -2.49414,-8.79883 -0.98829,-2.86745 -2.14918,-5.67508 -3.5293,-8.44141 -1.38011,-2.76632 -2.98059,-5.49247 -4.8457,-8.19336 -1.8651,-2.70089 -3.9962,-5.37768 -6.43945,-8.04883 -1.71028,-1.8698 -3.42527,-3.59609 -5.14453,-5.18554 -1.71927,-1.58946 -3.44265,-3.04171 -5.16992,-4.35938 -1.72727,-1.31767 -3.45712,-2.50219 -5.19141,-3.55664 -1.7343,-1.05445 -3.47255,-1.9795 -5.21289,-2.7793 -1.74034,-0.79979 -3.48312,-1.47364 -5.22852,-2.02734 -1.7454,-0.5537 -3.49271,-0.98656 -5.24218,-1.30273 -1.74948,-0.31617 -3.50134,-0.51632 -5.25391,-0.60352 -1.75258,-0.0872 -3.50703,-0.0609 -5.26172,0.0723 -1.75469,0.1332 -3.5098,0.37372 -5.26562,0.71875 -1.75583,0.34504 -3.51161,0.79349 -5.26758,1.3418 -1.75597,0.54831 -3.51244,1.19643 -5.26758,1.93945 -1.75514,0.74302 -3.50839,1.5806 -5.26172,2.50977 -3.50665,1.85833 -7.00845,4.08128 -10.50195,6.63281 -3.4935,2.55153 -6.97868,5.43315 -10.45117,8.60937 -3.84646,3.51828 -7.45477,7.14893 -10.85157,10.89063 -3.3968,3.74169 -6.58263,7.59324 -9.58398,11.55273 -3.00135,3.9595 -5.81843,8.02755 -8.47852,12.19922 -2.66009,4.17168 -5.16407,8.44794 -7.53711,12.82617 -2.37303,4.37825 -4.61569,8.85832 -6.75586,13.43751 -2.14017,4.57918 -4.17716,9.25674 -6.13867,14.03125 -1.96151,4.77451 -3.84655,9.64515 -5.68359,14.60937 -1.83704,4.96423 -3.6258,10.02161 -5.39258,15.16993 l -50.42969,-55.1309 c 4.60859,-9.12133 9.13071,-18.01729 13.79492,-26.66211 2.33211,-4.32241 4.70071,-8.5827 7.13282,-12.77735 2.43211,-4.19464 4.92807,-8.32364 7.51758,-12.38476 2.5895,-4.06112 5.27187,-8.05278 8.07617,-11.97461 2.80429,-3.92183 5.73016,-7.774 8.80664,-11.55078 3.07648,-3.77679 6.30293,-7.47949 9.70898,-11.10547 3.40606,-3.62598 6.99213,-7.17512 10.78516,-10.64453 0.82508,-0.75469 1.68088,-1.41128 2.51172,-2.14844 z"
       id="path4221-7" />
    <rect
       style="opacity:1;fill:#000000;fill-opacity:1;fill-rule:nonzero;stroke:none;stroke-width:2;stroke-linecap:butt;stroke-linejoin:miter;stroke-miterlimit:4;stroke-dasharray:none;stroke-opacity:0.38207547"
       id="rect4304-6"
       width="1024"
       height="768"
       x="0"
       y="284.36215"
       inkscape:export-xdpi="300"
       inkscape:export-ydpi="300" />
    <path
       style="opacity:1;fill:#4d4d4d;fill-opacity:1;fill-rule:nonzero;stroke:none;stroke-width:2;stroke-linecap:butt;stroke-linejoin:miter;stroke-miterlimit:4;stroke-dasharray:none;stroke-opacity:0.38207547"
       d="m 316.07227,768 -30.4668,-180.20508 176.03125,51.71094 c 0,0 4.26949,-3.2183 10.54687,-8.10156 6.27739,-4.88327 14.5627,-11.43311 22.59766,-18.09571 4.01748,-3.33129 7.97262,-6.69062 11.58203,-9.88476 3.60941,-3.19414 6.8734,-6.22163 9.50977,-8.89063 2.63637,-2.66899 4.64384,-4.97851 5.74218,-6.73437 0.54918,-0.87793 0.87096,-1.61842 0.92969,-2.19531 0.0294,-0.28845 -0.007,-0.53614 -0.11328,-0.74024 -0.10648,-0.2041 -0.28204,-0.36483 -0.5332,-0.47851 L 284.57812,518.875 245.39844,294.10938 185.56445,348.83789 208.63086,502.78125 59.486328,464.1582 0,518.57031 v 0.91016 L 214.0332,574.76562 246.91992,768 Z"
       id="path4239"
       transform="translate(0,284.36216)"
       inkscape:connector-curvature="0" />
    <path
       style="opacity:1;fill:#4d4d4d;fill-opacity:1;fill-rule:nonzero;stroke:none;stroke-width:2;stroke-linecap:butt;stroke-linejoin:miter;stroke-miterlimit:4;stroke-dasharray:none;stroke-opacity:0.38207547"
       d="m 556.80469,0 c -0.83084,0.73716156 -1.68664,1.3937508 -2.51172,2.1484375 -3.79303,3.4694125 -7.3791,7.0185514 -10.78516,10.6445315 -3.40605,3.62598 -6.6325,7.328682 -9.70898,11.105469 -3.07648,3.776786 -6.00235,7.628947 -8.80664,11.550781 -2.8043,3.921833 -5.48667,7.913489 -8.07617,11.974609 -2.58951,4.06112 -5.08547,8.19012 -7.51758,12.384766 -2.43211,4.194646 -4.80071,8.454932 -7.13282,12.777344 -4.66421,8.644823 -9.18633,17.540784 -13.79492,26.662109 l 50.42969,55.130863 c 1.76678,-5.14832 3.55554,-10.2057 5.39258,-15.16993 1.83704,-4.96422 3.72208,-9.83486 5.68359,-14.60937 1.96151,-4.77451 3.9985,-9.45207 6.13867,-14.03125 2.14017,-4.57919 4.38283,-9.05926 6.75586,-13.437501 2.37304,-4.378239 4.87702,-8.654495 7.53711,-12.826171 2.66009,-4.171677 5.47717,-8.239725 8.47852,-12.199219 3.00135,-3.959495 6.18718,-7.81104 9.58398,-11.552735 3.3968,-3.741695 7.00511,-7.372347 10.85157,-10.890625 3.47249,-3.176222 6.95767,-6.057842 10.45117,-8.609375 3.4935,-2.551532 6.9953,-4.774481 10.50195,-6.632812 1.75333,-0.929166 3.50658,-1.766746 5.26172,-2.509766 1.75514,-0.743019 3.51161,-1.391143 5.26758,-1.939453 1.75597,-0.548309 3.51175,-0.996761 5.26758,-1.341797 1.75582,-0.345035 3.51093,-0.585552 5.26562,-0.71875 1.75469,-0.133198 3.50914,-0.159469 5.26172,-0.07227 1.75257,0.0872 3.50443,0.287346 5.25391,0.603515 1.74947,0.31617 3.49678,0.749036 5.24218,1.302735 1.7454,0.553698 3.48818,1.227551 5.22852,2.027343 1.74034,0.799792 3.47859,1.724848 5.21289,2.779297 1.73429,1.054449 3.46414,2.238971 5.19141,3.556641 1.72727,1.31767 3.45065,2.76992 5.16992,4.359375 1.71926,1.589455 3.43425,3.315743 5.14453,5.185547 2.44325,2.671149 4.57435,5.347937 6.43945,8.048828 1.86511,2.700891 3.46559,5.427033 4.8457,8.193359 1.38012,2.766326 2.54101,5.573954 3.5293,8.441407 0.98829,2.867452 1.80452,5.794557 2.49414,8.798828 0.68963,3.00427 1.25222,6.084937 1.73633,9.261718 0.48411,3.176781 0.88801,6.449001 1.25977,9.833981 0.74351,6.76997 1.35594,13.99167 2.20898,21.80859 0.85304,7.81693 2.27095,19.03183 4.24414,33.70313 1.97319,14.67129 4.50292,32.80023 7.57813,54.44726 6.1504,43.29406 14.48598,100.66077 24.93554,172.58595 L 931.21875,209.98828 890.95312,165.9668 793.08203,255.48828 771.40625,97.916016 c -1.09219,-9.9903 -2.13328,-19.38944 -3.52734,-28.355469 -0.69703,-4.483015 -1.48267,-8.858005 -2.40625,-13.144531 -0.92358,-4.286527 -1.98548,-8.483524 -3.23633,-12.613282 -1.25085,-4.129757 -2.6903,-8.19237 -4.36914,-12.205078 -1.67884,-4.012707 -3.59714,-7.976731 -5.80469,-11.912109 -2.20755,-3.935378 -4.70403,-7.840514 -7.54102,-11.7382814 C 742.59239,5.2968562 740.26511,2.648446 738.00586,0 Z"
       id="rect4304"
       transform="translate(0,284.36216)"
       inkscape:connector-curvature="0" />
    <text
       xml:space="preserve"
       style="font-style:normal;font-variant:normal;font-weight:bold;font-stretch:normal;font-size:40.20294952px;line-height:125%;font-family:Arial;-inkscape-font-specification:'Arial Bold';letter-spacing:0px;word-spacing:0px;fill:#ffffff;fill-opacity:1;stroke:none;stroke-width:1px;stroke-linecap:butt;stroke-linejoin:miter;stroke-opacity:1"
       x="632.80792"
       y="1097.004"
       id="text3407"
       transform="scale(1.0720787,0.93276736)"><tspan
         sodipodi:role="line"
         id="tspan3409"
         x="632.80792"
         y="1133.217"
         style="font-style:normal;font-variant:normal;font-weight:normal;font-stretch:normal;font-size:32.16236115px;font-family:'Noto Sans';-inkscape-font-specification:'Noto Sans'" /></text>
    <text
       xml:space="preserve"
       style="font-style:normal;font-variant:normal;font-weight:bold;font-stretch:normal;font-size:25px;line-height:125%;font-family:Arial;-inkscape-font-specification:'Arial Bold';letter-spacing:0px;word-spacing:0px;fill:#666666;fill-opacity:1;stroke:none;stroke-width:1px;stroke-linecap:butt;stroke-linejoin:miter;stroke-opacity:1"
       x="-439.52942"
       y="570.47998"
       id="text3426"
       transform="rotate(-42.45274)"><tspan
         sodipodi:role="line"
         id="tspan3428"
         x="-439.52942"
         y="570.47998"
         style="font-style:normal;font-variant:normal;font-weight:300;font-stretch:normal;font-family:'Noto Sans CJK SC';-inkscape-font-specification:'Noto Sans CJK SC Light';fill:#666666">legendary notebook rebirth</tspan></text>
    <g
       id="g5261">
      <path
         id="rect3441"
         d="M 829.5666,616.26838 355.6252,1052.3622 h 8.35547 L 833.39864,620.43244 Z"
         style="opacity:1;fill:#fd0201;fill-opacity:1;fill-rule:nonzero;stroke:none;stroke-width:2;stroke-linecap:butt;stroke-linejoin:miter;stroke-miterlimit:4;stroke-dasharray:none;stroke-opacity:0.38207547"
         inkscape:connector-curvature="0" />
      <path
         id="path4276"
         d="m 1022.4766,438.75711 -452.04691,415.94532 3.83008,4.16211 448.21683,-412.42188 z"
         style="opacity:1;fill:#01ff00;fill-opacity:1;fill-rule:nonzero;stroke:none;stroke-width:2;stroke-linecap:butt;stroke-linejoin:miter;stroke-miterlimit:4;stroke-dasharray:none;stroke-opacity:0.38207547"
         inkscape:connector-curvature="0" />
      <path
         inkscape:connector-curvature="0"
         id="path4256"
         d="m 1024.9687,436.47 -218.23628,200.80664 3.83008,4.16211 214.4062,-197.28125 z"
         style="opacity:1;fill:#0000fd;fill-opacity:1;fill-rule:nonzero;stroke:none;stroke-width:2;stroke-linecap:butt;stroke-linejoin:miter;stroke-miterlimit:4;stroke-dasharray:none;stroke-opacity:0.38207547" />
    </g>
    <g
       id="g5254">
      <text
         id="text3418"
         y="1037.1049"
         x="783.28424"
         style="font-style:normal;font-variant:normal;font-weight:bold;font-stretch:normal;font-size:25px;line-height:125%;font-family:Arial;-inkscape-font-specification:'Arial Bold';letter-spacing:0px;word-spacing:0px;fill:#ffffff;fill-opacity:1;stroke:none;stroke-width:1px;stroke-linecap:butt;stroke-linejoin:miter;stroke-opacity:1"
         xml:space="preserve"><tspan
           style="font-style:normal;font-variant:normal;font-weight:300;font-stretch:normal;font-family:'Noto Sans CJK SC';-inkscape-font-specification:'Noto Sans CJK SC Light'"
           y="1037.1049"
           x="783.28424"
           id="tspan3420"
           sodipodi:role="line">made by </tspan></text>
      <g
         id="g5250">
        <path
           sodipodi:nodetypes="zzczzzzzzzczccccccszcccccczccccsczccczccczccccczscccczcczsczcccssssccsssscccccccccccsczccccccccccc"
           inkscape:connector-curvature="0"
           id="path5161"
           style="fill:#ffffff"
           d="m 947.36894,1028.5011 c 1.36345,0.962 0.98945,3.1852 -0.18529,4.2993 -1.17474,1.1142 -2.51532,1.1307 -3.15523,0.6825 -1.37102,-1.2962 -1.01272,-1.7626 -0.54387,-3.4451 0.46884,-1.6825 2.52094,-2.4987 3.88439,-1.5367 z m 32.18273,-1.9609 c 2.71425,0.1435 4.06186,1.2027 3.6171,3.7563 -0.44477,2.5537 -2.42243,4.5451 -4.67618,4.6666 -2.25374,0.1215 -3.79898,-1.7261 -3.7266,-3.2488 0.0724,-1.5227 2.07143,-5.3176 4.78568,-5.1741 z m -46.43302,-2.9937 c -1.49712,0.036 -2.96385,0.1545 -4.67109,1.5665 -1.70724,1.4119 -0.75711,0.6645 -0.75711,0.6645 0.19785,-0.6267 0.2869,-1.2567 0.4215,-1.9057 -1.8531,-0.032 -4.02304,-0.083 -5.57333,-0.049 -1.51661,6.9928 -1.74706,8.0877 -3.18253,13.9899 2.94168,-0.1057 3.89164,-0.1461 6.12301,-0.1513 0.52341,-2.7672 0.81815,-5.247 2.16907,-7.5702 0.75398,-1.2425 1.95724,-1.8152 2.83431,-1.6008 1.24806,0.3051 1.28752,1.1534 0.97989,2.411 -0.30763,1.2576 -1.06779,4.8378 -1.47356,6.9174 1.31331,-0.028 4.04636,0.076 5.70907,0.032 0.44579,-2.1157 1.09356,-4.9904 1.55096,-7.0071 1.02745,-4.4928 0.92368,-5.3441 -0.79859,-6.5529 -1.25055,-0.6696 -2.16038,-0.7489 -3.3316,-0.7442 z m 46.76926,-0.2871 c -4.34421,-0.1553 -8.32488,5.0144 -8.29745,9.0192 0.0274,4.0047 2.73459,6.0202 6.24011,6.0442 5.41033,-0.1934 7.6473,-4.7889 8.20894,-7.5329 0.96329,-4.8177 -2.27666,-7.4692 -6.1516,-7.5305 z m -11.53505,-0.1053 c -1.60993,0.012 -3.23002,0.4755 -4.55322,1.3541 -2.26091,1.5011 -3.5996,4.1777 -3.59404,7.1853 0.40881,3.0876 2.14269,5.3721 4.66456,6.3242 2.52187,0.9521 5.10869,-0.055 6.56131,-0.791 -0.0853,-0.6996 0.0309,-1.9498 0.0879,-3.1021 -1.62736,0.7517 -3.2547,1.4358 -5.47179,0.6262 -2.68867,-1.0268 -3.04544,-4.1362 -1.19427,-6.5108 1.85117,-2.3746 4.65729,-1.5111 7.30274,-0.8196 0.0558,-1.1903 0.11126,-2.1833 0.24739,-3.3432 -1.30561,-0.5312 -2.80941,-0.9245 -4.05061,-0.9231 z m 27.07265,-0.019 c -1.57533,-0.2219 -3.85999,0.8667 -4.88947,2.1941 0.14201,-0.5379 0.1753,-0.7965 0.40198,-1.5235 -0.87181,0.042 -1.80252,-0.051 -3.28131,0.11 -1.18586,5.8245 -1.5229,7.4772 -2.95731,14.2055 1.78786,0.027 2.08159,0 3.33498,-0.02 0.99707,-5.1072 1.41863,-6.8994 2.22555,-9.1197 0.80692,-2.2203 1.83994,-2.3413 3.02253,-2.3413 1.39598,0 2.04372,0.789 1.56279,2.3433 -0.77115,2.4314 -1.89097,6.6697 -2.37614,9.0177 1.52876,-0.032 2.37757,-0.055 3.20041,-0.01 0.89688,-3.4369 1.9313,-8.5875 4.17671,-10.6238 1.28657,-1.1324 2.45357,-1.2276 3.03487,-0.3786 0.5814,0.8491 -2.0317,8.6564 -2.7467,10.9914 1.189,-0.045 2.753,0 3.6779,0.018 0.7418,-3.1326 3.6425,-11.2569 2.3538,-13.2532 -1.2887,-1.9963 -4.1478,-2.0097 -6.64954,0.2495 -0.68985,0.623 -1.18884,0.9606 -1.10897,0.7505 -0.0551,-1.6088 -1.40675,-2.3885 -2.98208,-2.6104 z m -93.22357,-3.6649 c -2.53651,0 -5.35919,0.017 -7.55053,0.053 -0.0658,0.1065 -0.19166,0.4826 -0.27955,0.8359 -0.71649,2.8608 -2.14424,9.6647 -2.14424,9.6647 h 2.98128 c 2.50837,0 3.06946,0.058 3.53717,0.3636 1.07166,0.701 0.57774,2.149 -0.95478,2.7995 -1.43767,0.6103 -2.0385,0.3832 -4.2853,0.2095 -2.57315,-0.199 -0.99334,-0.1447 -2.63565,-0.2263 -0.0134,0.7961 -0.0105,4.0602 -0.0252,4.3421 1.78834,0.4483 2.11317,0.6068 5.51681,0.765 3.40365,0.1581 8.27789,-2.3607 9.48973,-4.665 1.21183,-2.3042 0.96973,-3.7151 0.0601,-5.214 -0.90966,-1.4989 -3.64068,-2.1161 -5.03542,-2.1679 -1.6351,-0.061 -1.58756,-0.014 -1.58756,-0.014 l 0.63638,-2.447 c 2.60514,-0.1036 3.98527,-0.1282 7.21652,-0.1486 0.46606,-1.336 0.71522,-3.6047 0.8931,-4.1267 -1.04599,-0.015 -3.2963,-0.026 -5.8328,-0.024 z m 43.64816,0.02 c -1.99198,0.01 -4.75553,-0.019 -5.47334,-0.012 -1.60786,7.017 -2.14096,9.6472 -4.14798,18.452 1.84896,-0.01 3.28267,0.01 5.23544,-0.011 0.1799,-0.551 0.28855,-1.0035 0.41498,-1.5863 0.79352,1.8226 2.85947,1.9874 4.17491,1.9433 2.1005,-0.076 3.6441,-0.7442 5.11713,-2.2152 1.80172,-1.7991 3.05487,-5.2495 2.82549,-7.7792 -0.22872,-1.8326 -1.38541,-3.9441 -3.25124,-4.4774 -1.86584,-0.5333 -3.8723,-0.1809 -5.76947,-0.2182 0.29854,-1.4569 0.602,-2.7537 0.87408,-4.0959 z m -31.27167,-0.1719 c -1.77522,1.0574 -2.1776,1.4027 -3.84315,2.4306 -0.28707,1.3138 -0.74497,3.42 -1.23312,5.3818 1.45526,-0.853 2.72566,-1.6087 4.10547,-2.3509 -1.0384,4.3251 -2.44278,9.4123 -3.12026,13.0914 2.43494,-0.056 3.17158,-0.034 5.61814,-0.02 1.09176,-4.8203 3.61993,-15.304 4.39744,-18.4901 -1.97533,-0.014 -3.81201,-0.012 -5.92452,-0.042 z" />
        <path
           style="fill:#fd0201;fill-opacity:1"
           d="m 956.4874,1033.5041 a 2.2784866,2.2784866 0 0 0 -2.27841,2.2788 2.2784866,2.2784866 0 0 0 2.27841,2.2784 2.2784866,2.2784866 0 0 0 2.27842,-2.2784 2.2784866,2.2784866 0 0 0 -2.27842,-2.2788 z"
           id="path5092"
           inkscape:connector-curvature="0" />
      </g>
    </g>
    <text
       xml:space="preserve"
       style="font-style:normal;font-variant:normal;font-weight:bold;font-stretch:normal;font-size:25px;line-height:125%;font-family:Arial;-inkscape-font-specification:'Arial Bold';letter-spacing:0px;word-spacing:0px;fill:#000000;fill-opacity:1;stroke:none;stroke-width:1px;stroke-linecap:butt;stroke-linejoin:miter;stroke-opacity:1"
       x="-320"
       y="864.36218"
       id="text3431"><tspan
         sodipodi:role="line"
         id="tspan3433"
         x="-320"
         y="886.88104"
         style="font-style:normal;font-variant:normal;font-weight:600;font-stretch:normal;font-size:500px;font-family:FreeSans;-inkscape-font-specification:'FreeSans Semi-Bold';fill:#4d4d4d" /></text>
    <path
       style="opacity:1;fill:#4d4d4d;fill-opacity:1;fill-rule:nonzero;stroke:none;stroke-width:2;stroke-linecap:butt;stroke-linejoin:miter;stroke-miterlimit:4;stroke-dasharray:none;stroke-opacity:1"
       d="m 382.7761,383.67953 -55.70574,54.09278 c 37.46787,163.48892 38.07157,288.03176 81.75541,336.53395 59.15632,64.67428 159.54086,69.14747 224.21514,9.99115 64.67428,-59.15633 69.14747,-159.54087 9.99115,-224.21515 C 576.75,485.50574 485.86778,491.98511 415.43562,554.27549 Z m 79.11491,211.78719 a 97.305953,97.305953 0 0 1 7.49701,-6.19813 97.305953,97.305953 0 0 1 8.07559,-5.41808 97.305953,97.305953 0 0 1 8.57976,-4.5853 97.305953,97.305953 0 0 1 8.99215,-3.70534 97.305953,97.305953 0 0 1 9.31806,-2.78924 97.305953,97.305953 0 0 1 9.54984,-1.84526 97.305953,97.305953 0 0 1 9.68792,-0.88307 97.305953,97.305953 0 0 1 9.72467,0.089 97.305953,97.305953 0 0 1 9.66859,1.0602 97.305953,97.305953 0 0 1 9.51536,2.01902 97.305953,97.305953 0 0 1 9.26529,2.95913 97.305953,97.305953 0 0 1 8.92365,3.86952 97.305953,97.305953 0 0 1 8.49255,4.73911 97.305953,97.305953 0 0 1 7.97687,5.56649 97.305953,97.305953 0 0 1 7.38214,6.33428 97.305953,97.305953 0 0 1 4.82553,4.9136 97.305953,97.305953 0 0 1 6.19813,7.49701 97.305953,97.305953 0 0 1 5.41808,8.07559 97.305953,97.305953 0 0 1 4.5853,8.57976 97.305953,97.305953 0 0 1 3.70535,8.99216 97.305953,97.305953 0 0 1 2.78922,9.31805 97.305953,97.305953 0 0 1 1.84528,9.54984 97.305953,97.305953 0 0 1 0.88306,9.68791 97.305953,97.305953 0 0 1 -0.089,9.72468 97.305953,97.305953 0 0 1 -1.06019,9.66859 97.305953,97.305953 0 0 1 -2.01903,9.51536 97.305953,97.305953 0 0 1 -2.95912,9.26529 97.305953,97.305953 0 0 1 -3.86953,8.92365 97.305953,97.305953 0 0 1 -4.73911,8.49255 97.305953,97.305953 0 0 1 -5.56648,7.97686 97.305953,97.305953 0 0 1 -6.33429,7.38215 97.305953,97.305953 0 0 1 -4.9136,4.82553 97.305953,97.305953 0 0 1 -7.497,6.19813 97.305953,97.305953 0 0 1 -8.0756,5.41808 97.305953,97.305953 0 0 1 -8.57976,4.5853 97.305953,97.305953 0 0 1 -8.99215,3.70535 97.305953,97.305953 0 0 1 -9.31805,2.78923 97.305953,97.305953 0 0 1 -9.54985,1.84526 97.305953,97.305953 0 0 1 -9.68792,0.88307 97.305953,97.305953 0 0 1 -9.72466,-0.089 97.305953,97.305953 0 0 1 -9.6686,-1.0602 97.305953,97.305953 0 0 1 -9.51535,-2.01902 97.305953,97.305953 0 0 1 -9.2653,-2.95914 97.305953,97.305953 0 0 1 -8.92365,-3.86952 97.305953,97.305953 0 0 1 -8.49255,-4.73911 97.305953,97.305953 0 0 1 -7.97686,-5.56648 97.305953,97.305953 0 0 1 -7.38215,-6.33428 97.305953,97.305953 0 0 1 -4.82553,-4.91361 97.305953,97.305953 0 0 1 -6.19813,-7.49701 97.305953,97.305953 0 0 1 -5.41808,-8.07559 97.305953,97.305953 0 0 1 -4.58529,-8.57976 97.305953,97.305953 0 0 1 -3.70536,-8.99215 97.305953,97.305953 0 0 1 -2.78922,-9.31805 97.305953,97.305953 0 0 1 -1.84528,-9.54985 97.305953,97.305953 0 0 1 -0.88306,-9.68791 97.305953,97.305953 0 0 1 0.089,-9.72468 97.305953,97.305953 0 0 1 1.06019,-9.66859 97.305953,97.305953 0 0 1 2.01903,-9.51535 97.305953,97.305953 0 0 1 2.95913,-9.2653 97.305953,97.305953 0 0 1 3.86952,-8.92365 97.305953,97.305953 0 0 1 4.73911,-8.49255 97.305953,97.305953 0 0 1 5.56649,-7.97686 97.305953,97.305953 0 0 1 6.33428,-7.38215 97.305953,97.305953 0 0 1 4.9136,-4.82553 z"
       id="path3365"
       inkscape:connector-curvature="0" />
  </g>
</svg>
