<?xml version="1.0" encoding="UTF-8" standalone="no"?>
<!-- Created with Inkscape (http://www.inkscape.org/) -->

<svg
   xmlns:dc="http://purl.org/dc/elements/1.1/"
   xmlns:cc="http://creativecommons.org/ns#"
   xmlns:rdf="http://www.w3.org/1999/02/22-rdf-syntax-ns#"
   xmlns:svg="http://www.w3.org/2000/svg"
   xmlns="http://www.w3.org/2000/svg"
   xmlns:sodipodi="http://sodipodi.sourceforge.net/DTD/sodipodi-0.dtd"
   xmlns:inkscape="http://www.inkscape.org/namespaces/inkscape"
   width="1024"
   height="768"
   viewBox="0 0 1024 768.00001"
   id="svg2"
   version="1.1"
   inkscape:version="0.92.2 (5c3e80d, 2017-08-06)"
   sodipodi:docname="Quintus_51nb_splash_3.svg"
   inkscape:export-filename="/home/quintus/Desktop/51nb_splash/Quintus_51nb_splash.png"
   inkscape:export-xdpi="299.98721"
   inkscape:export-ydpi="299.98721">
  <defs
     id="defs4" />
  <sodipodi:namedview
     id="base"
     pagecolor="#ffffff"
     bordercolor="#666666"
     borderopacity="1.0"
     inkscape:pageopacity="1"
     inkscape:pageshadow="2"
     inkscape:zoom="0.70710678"
     inkscape:cx="561.29899"
     inkscape:cy="372.74088"
     inkscape:document-units="px"
     inkscape:current-layer="layer1"
     showgrid="false"
     units="px"
     showborder="true"
     inkscape:snap-global="true"
     inkscape:window-width="1400"
     inkscape:window-height="989"
     inkscape:window-x="0"
     inkscape:window-y="27"
     inkscape:window-maximized="1" />
  <metadata
     id="metadata7">
    <rdf:RDF>
      <cc:Work
         rdf:about="">
        <dc:format>image/svg+xml</dc:format>
        <dc:type
           rdf:resource="http://purl.org/dc/dcmitype/StillImage" />
        <dc:title></dc:title>
      </cc:Work>
    </rdf:RDF>
  </metadata>
  <g
     inkscape:label="Layer 1"
     inkscape:groupmode="layer"
     id="layer1"
     transform="translate(0,-284.36216)">
    <rect
       style="opacity:1;fill:#000000;fill-opacity:1;fill-rule:nonzero;stroke:none;stroke-width:2;stroke-linecap:butt;stroke-linejoin:miter;stroke-miterlimit:4;stroke-dasharray:none;stroke-opacity:0.38207547"
       id="rect4304"
       width="1024"
       height="768"
       x="0"
       y="284.36215"
       inkscape:export-xdpi="300"
       inkscape:export-ydpi="300" />
    <text
       xml:space="preserve"
       style="font-style:normal;font-variant:normal;font-weight:bold;font-stretch:normal;line-height:0%;font-family:Arial;-inkscape-font-specification:'Arial Bold';letter-spacing:0px;word-spacing:0px;fill:#ffffff;fill-opacity:1;stroke:none;stroke-width:1px;stroke-linecap:butt;stroke-linejoin:miter;stroke-opacity:1"
       x="632.80792"
       y="1097.004"
       id="text3407"
       transform="scale(1.0720787,0.93276736)"><tspan
         sodipodi:role="line"
         id="tspan3409"
         x="632.80792"
         y="1097.004"
         style="font-style:normal;font-variant:normal;font-weight:normal;font-stretch:normal;font-size:32.16236115px;line-height:1.25;font-family:'Noto Sans';-inkscape-font-specification:'Noto Sans'"> </tspan></text>
    <text
       xml:space="preserve"
       style="font-style:normal;font-variant:normal;font-weight:bold;font-stretch:normal;font-size:13.48646641px;line-height:0%;font-family:Arial;-inkscape-font-specification:'Arial Bold';letter-spacing:0px;word-spacing:0px;fill:#666666;fill-opacity:1;stroke:none;stroke-width:1.12387228px;stroke-linecap:butt;stroke-linejoin:miter;stroke-opacity:1"
       x="-413.93491"
       y="658.31665"
       id="text3426"
       transform="matrix(0.72988208,-0.68233594,0.667707,0.74587324,0,0)"><tspan
         sodipodi:role="line"
         id="tspan3428"
         x="-413.93491"
         y="658.31665"
         style="font-style:normal;font-variant:normal;font-weight:300;font-stretch:normal;font-size:28.09680557px;line-height:1.25;font-family:'Noto Sans CJK SC';-inkscape-font-specification:'Noto Sans CJK SC Light';fill:#666666;stroke-width:1.12387228px">Never forget the past. </tspan></text>
    <g
       id="g5261">
      <path
         id="rect3441"
         d="M 829.5666,616.26838 355.6252,1052.3622 h 8.35547 L 833.39864,620.43244 Z"
         style="opacity:1;fill:#fd0201;fill-opacity:1;fill-rule:nonzero;stroke:none;stroke-width:2;stroke-linecap:butt;stroke-linejoin:miter;stroke-miterlimit:4;stroke-dasharray:none;stroke-opacity:0.38207547"
         inkscape:connector-curvature="0" />
      <path
         id="path4276"
         d="m 1022.4766,438.75711 -452.04691,415.94532 3.83008,4.16211 448.21683,-412.42188 z"
         style="opacity:1;fill:#01ff00;fill-opacity:1;fill-rule:nonzero;stroke:none;stroke-width:2;stroke-linecap:butt;stroke-linejoin:miter;stroke-miterlimit:4;stroke-dasharray:none;stroke-opacity:0.38207547"
         inkscape:connector-curvature="0" />
      <path
         inkscape:connector-curvature="0"
         id="path4256"
         d="m 1024.9687,436.47 -218.23628,200.80664 3.83008,4.16211 214.4062,-197.28125 z"
         style="opacity:1;fill:#0000fd;fill-opacity:1;fill-rule:nonzero;stroke:none;stroke-width:2;stroke-linecap:butt;stroke-linejoin:miter;stroke-miterlimit:4;stroke-dasharray:none;stroke-opacity:0.38207547" />
    </g>
    <text
       xml:space="preserve"
       style="font-style:normal;font-variant:normal;font-weight:bold;font-stretch:normal;line-height:0%;font-family:Arial;-inkscape-font-specification:'Arial Bold';letter-spacing:0px;word-spacing:0px;fill:#ffffff;fill-opacity:1;stroke:none;stroke-width:1px;stroke-linecap:butt;stroke-linejoin:miter;stroke-opacity:1"
       x="737.28424"
       y="1037.1049"
       id="text3418"><tspan
         sodipodi:role="line"
         id="tspan3420"
         x="737.28424"
         y="1037.1049"
         style="font-style:normal;font-variant:normal;font-weight:300;font-stretch:normal;font-size:25px;line-height:1.25;font-family:'Noto Sans CJK SC';-inkscape-font-specification:'Noto Sans CJK SC Light'">made by www.51nb.com</tspan></text>
    <path
       style="fill:#b3b3b3;stroke-width:2.57477975"
       d="m 790.43007,386.08125 c -7.51691,-0.26143 -14.93374,1.03975 -21.71877,4.38807 -21.71224,10.71456 -37.41104,31.00883 -55.31636,46.68586 -9.26734,-16.32225 -17.16602,-31.17223 -25.73166,-46.18516 -18.42498,16.89075 -44.2689,40.00019 -50.87014,46.13064 43.05995,80.05231 59.84532,109.47188 113.9733,209.83146 17.09659,-15.68434 30.52344,-27.65042 48.47254,-44.33863 -2.88313,-6.73867 -5.61497,-11.94497 -9.2573,-18.53355 22.41834,10.55891 42.94435,-5.33714 54.78073,-16.87063 18.85458,-18.46918 27.65181,-37.83896 29.16201,-64.21879 1.84721,-32.2662 -15.03708,-75.54046 -38.0641,-97.56334 -11.86772,-10.60541 -28.893,-18.75073 -45.43025,-19.32593 z m -10.43913,77.26195 c 18.60007,0.75124 31.59286,23.23879 30.00765,42.43893 -1.69086,20.48015 -13.98936,31.96359 -23.62782,33.12518 -23.42531,-0.6925 -23.95434,-8.14002 -33.50654,-28.03892 -9.55216,-19.89894 2.73774,-44.97045 23.33246,-47.37877 1.28717,-0.15052 2.55426,-0.19649 3.79425,-0.14642 z M 649.1041,515.25573 c -2.75709,3e-4 -5.71978,0.22771 -8.96496,0.6156 -17.13188,4.22376 -26.22777,11.1609 -37.05255,21.10178 -13.58843,12.99201 -26.21379,26.50546 -30.38383,54.3054 -0.9251,6.16732 -1.41654,9.58999 -1.77467,12.16726 -3.31105,-7.39048 -7.57534,-13.97328 -11.59235,-21.08736 -17.4497,15.35838 -37.99835,33.21178 -52.09666,46.63381 43.70594,79.0516 50.61281,91.36973 86.06156,159.40606 26.41168,-25.85803 34.89101,-34.26761 55.54463,-53.17164 -18.00695,-30.63372 -35.7622,-56.61476 -42.42601,-90.03571 -3.27192,-18.14005 3.15996,-33.72917 13.06624,-39.10944 14.09675,-7.6562 21.47045,0.0445 29.00722,14.55622 7.53676,14.51169 30.06473,54.84602 43.48195,77.97262 11.95335,-11.35874 38.1583,-33.4692 53.21399,-47.93895 -13.34491,-23.80728 -31.08524,-56.51114 -43.50412,-79.47817 -24.14077,-44.83416 -33.2808,-55.94025 -52.58044,-55.93748 z m -197.61497,88.66649 c -18.43522,16.5612 -35.45907,32.097 -55.30438,49.65963 -7.72943,25.01643 -8.60764,31.68818 -15.56431,55.49775 8.19246,14.87103 21.3466,38.6882 33.02714,61.39576 6.45042,-20.37683 11.98843,-38.27018 18.65516,-56.95906 26.10152,49.74198 55.10575,109.79736 79.21809,150.37103 22.12391,-21.10329 29.14231,-27.11757 51.9434,-47.66645 -29.69826,-54.88391 -92.86387,-175.54972 -111.9751,-212.29866 z m -114.54675,106.6181 c -9.82647,8.69568 -30.78723,27.60619 -54.29813,49.05765 -23.51005,21.45242 -49.5702,45.44248 -69.59766,64.30053 0.26937,1.56477 2.20805,6.19366 4.31125,10.28214 16.99019,33.15266 59.96197,109.66463 59.96197,109.66463 l 27.65242,-25.19299 c 23.2661,-21.19537 28.94696,-25.39033 35.81236,-26.44481 15.7309,-2.41618 23.11358,15.47335 14.27352,34.58486 -8.29286,17.92859 -15.7427,20.85432 -38.01784,38.19383 -25.51071,19.858 -10.40989,7.0234 -26.31757,20.1272 6.45281,7.6542 33.44981,38.54774 35.64208,41.34324 20.29134,-10.8649 24.612,-12.1059 57.48861,-39.36804 32.87662,-27.26215 57.27729,-92.30799 49.47994,-124.37429 -7.79733,-32.06625 -21.6996,-43.386 -42.52078,-49.89744 -20.82119,-6.51143 -51.25074,10.71965 -64.61535,22.01442 -15.66764,13.24126 -14.83696,13.28581 -14.83696,13.28581 l -14.31398,-28.55568 c 23.3079,-22.9939 35.9048,-34.89008 65.70706,-62.38693 -6.71477,-16.59267 -23.14775,-40.18616 -25.81094,-46.63413 z"
       id="path769"
       inkscape:connector-curvature="0" />
    <text
       xml:space="preserve"
       style="font-style:normal;font-variant:normal;font-weight:bold;font-stretch:normal;font-size:13.48646641px;line-height:0%;font-family:Arial;-inkscape-font-specification:'Arial Bold';letter-spacing:0px;word-spacing:0px;fill:#666666;fill-opacity:1;stroke:none;stroke-width:1.12387228px;stroke-linecap:butt;stroke-linejoin:miter;stroke-opacity:1"
       x="-239.33667"
       y="700.32556"
       id="text3426-7"
       transform="matrix(0.72988208,-0.68233594,0.667707,0.74587324,0,0)"><tspan
         sodipodi:role="line"
         id="tspan3428-5"
         x="-239.33667"
         y="700.32556"
         style="font-style:normal;font-variant:normal;font-weight:300;font-stretch:normal;font-size:28.09680557px;line-height:1.25;font-family:'Noto Sans CJK SC';-inkscape-font-specification:'Noto Sans CJK SC Light';fill:#666666;stroke-width:1.12387228px">Build for the future.</tspan></text>
    <ellipse
       style="opacity:1;fill:#ff0000;fill-opacity:1;fill-rule:nonzero;stroke:none;stroke-width:0.79209638;stroke-linecap:butt;stroke-linejoin:miter;stroke-miterlimit:4;stroke-dasharray:none;stroke-opacity:1"
       id="path826"
       cx="882.19623"
       cy="494.46884"
       rx="32.799854"
       ry="32.073277" />
    <g
       id="g60">
      <text
         id="text3418-3"
         y="1007.7872"
         x="891.96716"
         style="font-style:normal;font-variant:normal;font-weight:bold;font-stretch:normal;line-height:0%;font-family:Arial;-inkscape-font-specification:'Arial Bold';letter-spacing:0px;word-spacing:0px;fill:#ffffff;fill-opacity:1;stroke:none;stroke-width:1px;stroke-linecap:butt;stroke-linejoin:miter;stroke-opacity:1"
         xml:space="preserve"><tspan
           style="font-style:normal;font-variant:normal;font-weight:300;font-stretch:normal;font-size:25px;line-height:1.25;font-family:'Noto Sans CJK SC';-inkscape-font-specification:'Noto Sans CJK SC Light'"
           y="1007.7872"
           x="891.96716"
           id="tspan3420-6"
           sodipodi:role="line">承前    启后</tspan></text>
      <circle
         r="5.5"
         cy="998.36218"
         cx="953"
         id="path55"
         style="opacity:1;fill:#ff0000;fill-opacity:1;fill-rule:nonzero;stroke:none;stroke-width:1.00157475;stroke-linecap:butt;stroke-linejoin:miter;stroke-miterlimit:4;stroke-dasharray:none;stroke-opacity:1" />
    </g>
  </g>
</svg>
