<?xml version="1.0" encoding="UTF-8" standalone="no"?>
<!-- Created with Inkscape (http://www.inkscape.org/) -->

<svg
   xmlns:dc="http://purl.org/dc/elements/1.1/"
   xmlns:cc="http://creativecommons.org/ns#"
   xmlns:rdf="http://www.w3.org/1999/02/22-rdf-syntax-ns#"
   xmlns:svg="http://www.w3.org/2000/svg"
   xmlns="http://www.w3.org/2000/svg"
   xmlns:sodipodi="http://sodipodi.sourceforge.net/DTD/sodipodi-0.dtd"
   xmlns:inkscape="http://www.inkscape.org/namespaces/inkscape"
   width="1024"
   height="768"
   viewBox="0 0 1024 768.00001"
   id="svg2"
   version="1.1"
   inkscape:version="0.92.2 (5c3e80d, 2017-08-06)"
   sodipodi:docname="Quintus_51nb_splash.svg"
   inkscape:export-filename="/home/quintus/Desktop/51nb_splash/Quintus_51nb_splash.png"
   inkscape:export-xdpi="299.98721"
   inkscape:export-ydpi="299.98721">
  <defs
     id="defs4" />
  <sodipodi:namedview
     id="base"
     pagecolor="#ffffff"
     bordercolor="#666666"
     borderopacity="1.0"
     inkscape:pageopacity="1"
     inkscape:pageshadow="2"
     inkscape:zoom="0.70710678"
     inkscape:cx="561.29899"
     inkscape:cy="372.74088"
     inkscape:document-units="px"
     inkscape:current-layer="layer1"
     showgrid="false"
     units="px"
     showborder="true"
     inkscape:snap-global="true"
     inkscape:window-width="1400"
     inkscape:window-height="989"
     inkscape:window-x="0"
     inkscape:window-y="27"
     inkscape:window-maximized="1" />
  <metadata
     id="metadata7">
    <rdf:RDF>
      <cc:Work
         rdf:about="">
        <dc:format>image/svg+xml</dc:format>
        <dc:type
           rdf:resource="http://purl.org/dc/dcmitype/StillImage" />
        <dc:title />
      </cc:Work>
    </rdf:RDF>
  </metadata>
  <g
     inkscape:label="Layer 1"
     inkscape:groupmode="layer"
     id="layer1"
     transform="translate(0,-284.36216)">
    <rect
       style="opacity:1;fill:#000000;fill-opacity:1;fill-rule:nonzero;stroke:none;stroke-width:2;stroke-linecap:butt;stroke-linejoin:miter;stroke-miterlimit:4;stroke-dasharray:none;stroke-opacity:0.38207547"
       id="rect4304"
       width="1024"
       height="768"
       x="0"
       y="284.36215"
       inkscape:export-xdpi="300"
       inkscape:export-ydpi="300" />
    <text
       xml:space="preserve"
       style="font-style:normal;font-variant:normal;font-weight:bold;font-stretch:normal;line-height:0%;font-family:Arial;-inkscape-font-specification:'Arial Bold';letter-spacing:0px;word-spacing:0px;fill:#ffffff;fill-opacity:1;stroke:none;stroke-width:1px;stroke-linecap:butt;stroke-linejoin:miter;stroke-opacity:1"
       x="632.80792"
       y="1097.004"
       id="text3407"
       transform="scale(1.0720787,0.93276736)"><tspan
         sodipodi:role="line"
         id="tspan3409"
         x="632.80792"
         y="1097.004"
         style="font-style:normal;font-variant:normal;font-weight:normal;font-stretch:normal;font-size:32.16236115px;line-height:1.25;font-family:'Noto Sans';-inkscape-font-specification:'Noto Sans'"> </tspan></text>
    <text
       xml:space="preserve"
       style="font-style:normal;font-variant:normal;font-weight:bold;font-stretch:normal;font-size:14.08919144px;line-height:0%;font-family:Arial;-inkscape-font-specification:'Arial Bold';letter-spacing:0px;word-spacing:0px;fill:#666666;fill-opacity:1;stroke:none;stroke-width:1.17409933px;stroke-linecap:butt;stroke-linejoin:miter;stroke-opacity:1"
       x="-391.18735"
       y="497.56836"
       id="text3426"
       transform="rotate(-42.45274)"><tspan
         sodipodi:role="line"
         id="tspan3428"
         x="-391.18735"
         y="497.56836"
         style="font-style:normal;font-variant:normal;font-weight:300;font-stretch:normal;font-size:29.35248375px;line-height:1.25;font-family:'Noto Sans CJK SC';-inkscape-font-specification:'Noto Sans CJK SC Light';fill:#666666;stroke-width:1.17409933px">Never forget the past. </tspan></text>
    <g
       id="g5261">
      <path
         id="rect3441"
         d="m 829.5666,616.26838 -473.9414,436.09382 8.35547,0 469.41797,-431.92976 -3.83204,-4.16406 z"
         style="opacity:1;fill:#fd0201;fill-opacity:1;fill-rule:nonzero;stroke:none;stroke-width:2;stroke-linecap:butt;stroke-linejoin:miter;stroke-miterlimit:4;stroke-dasharray:none;stroke-opacity:0.38207547"
         inkscape:connector-curvature="0" />
      <path
         id="path4276"
         d="m 1022.4766,438.75711 -452.04691,415.94532 3.83008,4.16211 448.21683,-412.42188 0,-7.68555 z"
         style="opacity:1;fill:#01ff00;fill-opacity:1;fill-rule:nonzero;stroke:none;stroke-width:2;stroke-linecap:butt;stroke-linejoin:miter;stroke-miterlimit:4;stroke-dasharray:none;stroke-opacity:0.38207547"
         inkscape:connector-curvature="0" />
      <path
         inkscape:connector-curvature="0"
         id="path4256"
         d="m 1024.9687,436.47 -218.23628,200.80664 3.83008,4.16211 214.4062,-197.28125 0,-7.6875 z"
         style="opacity:1;fill:#0000fd;fill-opacity:1;fill-rule:nonzero;stroke:none;stroke-width:2;stroke-linecap:butt;stroke-linejoin:miter;stroke-miterlimit:4;stroke-dasharray:none;stroke-opacity:0.38207547" />
    </g>
    <text
       xml:space="preserve"
       style="font-style:normal;font-variant:normal;font-weight:bold;font-stretch:normal;line-height:0%;font-family:Arial;-inkscape-font-specification:'Arial Bold';letter-spacing:0px;word-spacing:0px;fill:#ffffff;fill-opacity:1;stroke:none;stroke-width:1px;stroke-linecap:butt;stroke-linejoin:miter;stroke-opacity:1"
       x="737.28424"
       y="1037.1049"
       id="text3418"><tspan
         sodipodi:role="line"
         id="tspan3420"
         x="737.28424"
         y="1037.1049"
         style="font-style:normal;font-variant:normal;font-weight:300;font-stretch:normal;font-size:25px;line-height:1.25;font-family:'Noto Sans CJK SC';-inkscape-font-specification:'Noto Sans CJK SC Light'">made by www.51nb.com</tspan></text>
    <path
       style="fill:none;stroke:#cccccc;stroke-width:4.08618689"
       d="M 262.4874 768.00392 C 289.57788 720.05916 304.40225 660.61815 295.18531 626.11601 C 281.79532 575.99265 259.18368 558.59884 225.60604 548.93878 C 192.0284 539.2789 143.69187 567.14552 122.56516 585.23458 C 97.797784 606.44101 99.131462 606.48851 99.131462 606.48851 L 75.384999 562.0511 C 112.13936 525.33051 132.01809 506.31813 179.06584 462.35449 C 167.83823 436.49036 140.82936 399.89898 136.37995 389.84953 L 136.37995 389.84953 C 120.85707 403.76355 87.755257 434.01136 50.632845 468.31632 C 34.146174 483.55293 16.866416 499.5888 -0.018813879 515.34899 "
       id="path860"
       transform="translate(0,284.36216)" />
    <path
       style="fill:none;stroke:#cccccc;stroke-width:4.08618689"
       d="M 0.078352788 678.0434 C 24.730137 720.10473 47.163494 757.66704 47.163494 757.66704 L 90.826195 717.37754 C 127.56299 683.48121 136.55996 676.74351 147.54345 674.90331 C 172.71025 670.68701 185.04489 698.56891 171.39096 728.80574 C 162.8511 747.71745 154.72878 756.15091 139.81539 767.91583 "
       id="path856"
       transform="translate(0,284.36216)" />
    <path
       style="fill:none;stroke:#cccccc;stroke-width:4.08618689"
       d="M 317.18508 219.40912 C 288.06976 245.90127 261.1901 270.74586 229.84048 298.8479 C 218.13057 338.3236 216.90551 348.81972 206.40195 386.38023 C 219.95247 409.50217 241.70805 446.5329 261.06936 481.86171 C 270.85534 449.70307 279.24613 421.46725 289.42553 391.95232 C 332.66307 469.3277 380.84058 562.81352 420.635 625.85141 C 455.54219 592.13027 466.63459 582.50082 502.64328 549.6317 C 453.49484 464.28207 348.85214 276.57805 317.18508 219.40912 L 317.18508 219.40912 "
       id="path852"
       transform="translate(0,284.36216)" />
    <path
       style="fill:none;stroke:#cccccc;stroke-width:4.08618689"
       d="M 631.73068 74.90938 C 627.30817 74.98408 622.56209 75.42088 617.36732 76.11713 C 590.00302 83.20849 575.6036 94.34248 558.51362 110.23794 C 537.07459 130.99709 517.19472 152.54881 511.27093 196.29783 C 509.95676 206.00338 509.26266 211.38908 508.75914 215.44421 C 503.2446 203.93276 496.22325 193.7148 489.58391 182.65625 C 462.01629 207.23383 429.54646 235.81124 407.30137 257.25911 C 479.58416 380.16676 491.00225 399.31611 549.73682 505.15585 C 591.391 463.85593 604.76087 450.42723 637.37017 420.19786 C 607.64276 372.59807 578.44717 332.29468 566.83812 280.01434 C 561.09047 251.62859 570.97848 226.98559 586.72066 218.27352 C 609.12197 205.87612 621.16177 217.7651 633.65062 240.34067 C 646.13946 262.9162 683.38585 325.62099 705.54442 361.5607 C 724.40567 343.40928 765.83136 307.99736 789.58327 284.87911 C 767.522 247.869 738.1653 197.01261 717.6125 161.29647 C 677.65524 91.57189 662.68838 74.38519 631.73068 74.90938 L 631.73068 74.90938 "
       id="path850"
       transform="translate(0,284.36216)" />
    <path
       style="fill:none;stroke:#cccccc;stroke-width:4.08618689"
       d="M 866.04567 -0.034722466 C 881.52208 12.654658 890.91795 35.272578 889.5542 55.70531 C 887.40576 87.89791 867.99427 106.25437 852.56558 108.33729 C 814.97094 107.88123 813.91733 96.20535 798.04733 65.22794 C 786.29242 42.282919 793.68151 14.560599 811.7016 -0.03505617 "
       id="path846"
       transform="translate(0,284.36216)" />
    <path
       style="fill:none;stroke:#cccccc;stroke-width:4.08618689"
       d="M 640.5467 6.0323613 C 691.32125 94.106929 722.88412 147.2519 798.42748 278.85948 C 825.41965 253.77976 846.6278 234.63533 874.95991 207.95691 C 870.14968 197.45709 865.62438 189.35851 859.60059 179.11472 C 895.85148 195.08487 928.33889 169.58048 947.00778 151.1579 C 976.74329 121.65957 990.32127 91.01848 992.01764 49.57019 C 992.64955 34.130189 990.46647 17.134296 986.06388 0.0033423554 "
       id="path769-3"
       transform="translate(0,284.36216)" />
    <path
       style="fill:#b3b3b3;stroke-width:2.98394799"
       d="m 863.24068,303.93225 c -8.81034,-0.15181 -17.47201,1.48556 -25.35249,5.45704 -25.21766,12.70867 -43.19881,36.27985 -63.85743,54.60191 -11.18354,-18.52718 -20.73429,-35.39368 -31.06957,-52.43384 -21.24292,19.7235 -51.05116,46.72113 -58.66042,53.87803 52.0481,90.91338 72.30129,124.30554 137.72232,238.27851 19.71113,-18.31452 35.1984,-32.29479 55.88797,-51.77677 -3.51266,-7.66752 -6.8173,-13.58153 -11.21623,-21.06208 26.47236,11.66224 50.19636,-6.9624 63.8293,-20.41553 21.71442,-21.54123 31.62988,-43.91696 32.86864,-74.18467 1.5152,-37.02161 -19.13233,-86.29284 -46.5481,-111.08373 -14.11464,-11.92308 -34.22123,-20.92481 -53.60399,-21.25887 z m -10.6751,88.7672 c 21.80263,0.49526 37.47397,26.01616 36.00303,48.05559 -1.56897,23.50872 -15.74423,36.91357 -27.01106,38.43462 -27.45358,-0.33303 -28.22296,-8.85937 -39.81207,-31.4807 -11.58907,-22.62135 2.30298,-51.60142 26.37858,-54.76706 1.50473,-0.19784 2.98802,-0.27546 4.44152,-0.24245 z m -152.27323,62.0794 c -3.22955,0.0546 -6.69539,0.37353 -10.48888,0.88197 -19.98285,5.17848 -30.49806,13.3091 -42.97805,24.9168 -15.65591,15.15942 -30.17323,30.89761 -34.49909,62.84544 -0.95968,7.0875 -1.46654,11.02042 -1.83424,13.98168 -4.02701,-8.40626 -9.15437,-15.86794 -14.00276,-23.94348 -20.13132,17.94784 -43.84249,38.81656 -60.08702,54.47892 52.78468,89.7536 61.12276,103.73746 104.01383,181.02717 30.41806,-30.15938 40.18144,-39.96569 63.99446,-62.04076 -21.70851,-34.75986 -43.02866,-64.19151 -51.5062,-102.36935 -4.19724,-20.72876 3.02351,-38.72437 14.51928,-45.08638 16.3586,-9.05323 25.15069,-0.37127 34.27071,16.11459 9.12,16.48584 36.31927,62.27615 52.50062,88.52121 13.77346,-13.25511 44.02468,-39.11476 61.36959,-55.99691 -16.11032,-27.02672 -37.54813,-64.16472 -52.55685,-90.24652 -29.17889,-50.91654 -40.10847,-63.46717 -62.7154,-63.08438 z M 470.59468,560.30013 c -21.26154,19.34596 -40.89047,37.48878 -63.78361,58.01036 -8.55119,28.82723 -9.44579,36.49204 -17.11604,63.92069 9.8953,16.88485 25.78236,43.92666 39.921,69.72556 7.14624,-23.4839 13.27364,-44.10318 20.70717,-65.65652 31.57431,56.50358 66.75606,124.77185 95.81602,170.80533 25.49106,-24.6249 33.59131,-31.65684 59.88675,-55.65958 C 570.1352,739.1192 493.71962,602.04788 470.59468,560.30013 Z M 338.5613,684.76465 c -11.33562,10.16074 -35.5083,32.24928 -62.61703,57.30056 -27.10774,25.05235 -57.15156,53.06364 -80.23203,75.07368 0.34698,1.78833 2.71093,7.0561 5.25673,11.70115 20.56813,37.66721 72.4418,124.52419 72.4418,124.52419 l 31.88479,-29.42147 c 26.82713,-24.75291 33.39719,-29.67314 41.41791,-31.01688 18.37811,-3.07897 27.38552,17.28177 17.4147,39.36229 -9.35363,20.71386 -18.02133,24.21401 -43.76517,44.52762 -29.4833,23.26411 -12.05265,8.25544 -30.42301,23.58851 7.71246,8.6468 39.95684,43.5275 42.58099,46.6888 23.55024,-12.853 28.58639,-14.3606 66.54903,-46.2565 37.96265,-31.89599 65.23739,-106.93502 55.45928,-143.53779 -9.77807,-36.60272 -26.29028,-49.30459 -50.81043,-56.35882 -24.52015,-7.05423 -59.81801,13.2955 -75.24585,26.50506 -18.08643,15.48602 -17.11251,15.52074 -17.11251,15.52074 l -17.34091,-32.45053 c 26.83996,-26.81531 41.35645,-40.69913 75.71318,-72.80371 -8.19899,-18.88735 -27.92228,-45.60827 -31.17147,-52.9469 z"
       id="path769"
       inkscape:connector-curvature="0" />
    <path
       inkscape:connector-curvature="0"
       style="fill:#ffffff;stroke-width:2.98140192"
       d="m 1073.3285,363.16721 a 33.128378,33.128378 0 0 0 -1.8786,46.81556 33.128378,33.128378 0 0 0 46.8113,1.88257 33.128378,33.128378 0 0 0 1.8826,-46.8113 33.128378,33.128378 0 0 0 -46.8153,-1.88683 z"
       id="path5092-6" />
    <text
       xml:space="preserve"
       style="font-style:normal;font-variant:normal;font-weight:bold;font-stretch:normal;font-size:14.08919144px;line-height:0%;font-family:Arial;-inkscape-font-specification:'Arial Bold';letter-spacing:0px;word-spacing:0px;fill:#666666;fill-opacity:1;stroke:none;stroke-width:1.17409933px;stroke-linecap:butt;stroke-linejoin:miter;stroke-opacity:1"
       x="-198.228"
       y="543.18988"
       id="text3426-7"
       transform="rotate(-42.45274)"><tspan
         sodipodi:role="line"
         id="tspan3428-5"
         x="-198.228"
         y="543.18988"
         style="font-style:normal;font-variant:normal;font-weight:300;font-stretch:normal;font-size:29.35248375px;line-height:1.25;font-family:'Noto Sans CJK SC';-inkscape-font-specification:'Noto Sans CJK SC Light';fill:#666666;stroke-width:1.17409933px">Build for the future.</tspan></text>
    <circle
       style="opacity:1;fill:#ff0000;fill-opacity:1;fill-rule:nonzero;stroke:none;stroke-width:0.89796358;stroke-linecap:butt;stroke-linejoin:miter;stroke-miterlimit:4;stroke-dasharray:none;stroke-opacity:1"
       id="path826"
       cx="977.2215"
       cy="410.3092"
       r="36.76955" />
    <g
       id="g60">
      <text
         id="text3418-3"
         y="1007.7872"
         x="891.96716"
         style="font-style:normal;font-variant:normal;font-weight:bold;font-stretch:normal;line-height:0%;font-family:Arial;-inkscape-font-specification:'Arial Bold';letter-spacing:0px;word-spacing:0px;fill:#ffffff;fill-opacity:1;stroke:none;stroke-width:1px;stroke-linecap:butt;stroke-linejoin:miter;stroke-opacity:1"
         xml:space="preserve"><tspan
           style="font-style:normal;font-variant:normal;font-weight:300;font-stretch:normal;font-size:25px;line-height:1.25;font-family:'Noto Sans CJK SC';-inkscape-font-specification:'Noto Sans CJK SC Light'"
           y="1007.7872"
           x="891.96716"
           id="tspan3420-6"
           sodipodi:role="line">承先    啟后</tspan></text>
      <circle
         r="5.5"
         cy="998.36218"
         cx="953"
         id="path55"
         style="opacity:1;fill:#ff0000;fill-opacity:1;fill-rule:nonzero;stroke:none;stroke-width:1.00157475;stroke-linecap:butt;stroke-linejoin:miter;stroke-miterlimit:4;stroke-dasharray:none;stroke-opacity:1" />
    </g>
  </g>
</svg>
