<?xml version="1.0" encoding="UTF-8" standalone="no"?>
<!-- Created with Inkscape (http://www.inkscape.org/) -->

<svg
   xmlns:dc="http://purl.org/dc/elements/1.1/"
   xmlns:cc="http://creativecommons.org/ns#"
   xmlns:rdf="http://www.w3.org/1999/02/22-rdf-syntax-ns#"
   xmlns:svg="http://www.w3.org/2000/svg"
   xmlns="http://www.w3.org/2000/svg"
   xmlns:sodipodi="http://sodipodi.sourceforge.net/DTD/sodipodi-0.dtd"
   xmlns:inkscape="http://www.inkscape.org/namespaces/inkscape"
   width="1024"
   height="768"
   viewBox="0 0 1024 768.00001"
   id="svg2"
   version="1.1"
   inkscape:version="0.92.2 (5c3e80d, 2017-08-06)"
   sodipodi:docname="Quintus_51nb_splash_4.svg"
   inkscape:export-filename="/home/quintus/Desktop/Quintus_51nb_splash_1/Quintus_51nb_splash_4.png"
   inkscape:export-xdpi="95.999992"
   inkscape:export-ydpi="95.999992">
  <defs
     id="defs4" />
  <sodipodi:namedview
     id="base"
     pagecolor="#ffffff"
     bordercolor="#666666"
     borderopacity="1.0"
     inkscape:pageopacity="1"
     inkscape:pageshadow="2"
     inkscape:zoom="0.95833333"
     inkscape:cx="512"
     inkscape:cy="384.00001"
     inkscape:document-units="px"
     inkscape:current-layer="layer1"
     showgrid="false"
     units="px"
     showborder="true"
     inkscape:snap-global="false"
     inkscape:window-width="1400"
     inkscape:window-height="989"
     inkscape:window-x="0"
     inkscape:window-y="27"
     inkscape:window-maximized="1" />
  <metadata
     id="metadata7">
    <rdf:RDF>
      <cc:Work
         rdf:about="">
        <dc:format>image/svg+xml</dc:format>
        <dc:type
           rdf:resource="http://purl.org/dc/dcmitype/StillImage" />
        <dc:title></dc:title>
      </cc:Work>
    </rdf:RDF>
  </metadata>
  <g
     inkscape:label="Layer 1"
     inkscape:groupmode="layer"
     id="layer1"
     transform="translate(0,-284.36216)">
    <rect
       style="opacity:1;fill:#000000;fill-opacity:1;fill-rule:nonzero;stroke:none;stroke-width:2;stroke-linecap:butt;stroke-linejoin:miter;stroke-miterlimit:4;stroke-dasharray:none;stroke-opacity:0.38207547"
       id="rect4304"
       width="1024"
       height="768"
       x="0"
       y="284.36215"
       inkscape:export-xdpi="300"
       inkscape:export-ydpi="300" />
    <text
       xml:space="preserve"
       style="font-style:normal;font-variant:normal;font-weight:bold;font-stretch:normal;line-height:0%;font-family:Arial;-inkscape-font-specification:'Arial Bold';letter-spacing:0px;word-spacing:0px;fill:#ffffff;fill-opacity:1;stroke:none;stroke-width:1px;stroke-linecap:butt;stroke-linejoin:miter;stroke-opacity:1"
       x="632.80792"
       y="1097.004"
       id="text3407"
       transform="scale(1.0720787,0.93276736)"><tspan
         sodipodi:role="line"
         id="tspan3409"
         x="632.80792"
         y="1097.004"
         style="font-style:normal;font-variant:normal;font-weight:normal;font-stretch:normal;font-size:32.16236115px;line-height:1.25;font-family:'Noto Sans';-inkscape-font-specification:'Noto Sans'"> </tspan></text>
    <g
       id="g60"
       transform="translate(-441.11013,-57.40001)">
      <text
         id="text3418-3"
         y="1007.7872"
         x="891.96716"
         style="font-style:normal;font-variant:normal;font-weight:bold;font-stretch:normal;line-height:0%;font-family:Arial;-inkscape-font-specification:'Arial Bold';letter-spacing:0px;word-spacing:0px;fill:#ffffff;fill-opacity:1;stroke:none;stroke-width:1px;stroke-linecap:butt;stroke-linejoin:miter;stroke-opacity:1"
         xml:space="preserve"><tspan
           style="font-style:normal;font-variant:normal;font-weight:300;font-stretch:normal;font-size:25px;line-height:1.25;font-family:'Noto Sans CJK SC';-inkscape-font-specification:'Noto Sans CJK SC Light'"
           y="1007.7872"
           x="891.96716"
           id="tspan3420-6"
           sodipodi:role="line">承前    启后</tspan></text>
      <circle
         r="5.5"
         cy="998.36218"
         cx="953"
         id="path55"
         style="opacity:1;fill:#ff0000;fill-opacity:1;fill-rule:nonzero;stroke:none;stroke-width:1.00157475;stroke-linecap:butt;stroke-linejoin:miter;stroke-miterlimit:4;stroke-dasharray:none;stroke-opacity:1" />
    </g>
    <circle
       style="opacity:1;fill:#ffffff;fill-opacity:1;fill-rule:nonzero;stroke:none;stroke-width:1.14608049;stroke-linecap:butt;stroke-linejoin:miter;stroke-miterlimit:4;stroke-dasharray:none;stroke-opacity:1"
       id="path1009"
       cx="512"
       cy="651.04913"
       r="200" />
    <path
       style="fill:#000000;stroke-width:1.21327925"
       d="m 622.07099,508.52682 c -3.54209,-0.12316 -7.03702,0.48993 -10.23425,2.06772 -10.23116,5.04888 -17.62869,14.61188 -26.06599,21.99916 -4.36693,-7.69131 -8.08892,-14.68888 -12.12519,-21.76321 -8.68215,7.95919 -20.86025,18.84875 -23.97086,21.73752 20.29057,37.72199 28.20013,51.58499 53.70612,98.87609 8.0562,-7.39071 14.38317,-13.02933 22.84108,-20.8931 -1.35858,-3.17537 -2.64587,-5.62867 -4.3622,-8.73332 10.5639,4.97554 20.23609,-2.51494 25.8136,-7.94972 8.8846,-8.70298 13.02999,-17.83035 13.74163,-30.26097 0.87043,-15.20437 -7.08573,-35.59593 -17.93643,-45.97348 -5.59228,-4.99744 -13.61487,-8.83565 -21.40751,-9.10669 z m -4.91909,36.40712 c 8.76467,0.35399 14.88708,10.9505 14.14011,19.99793 -0.79677,9.65058 -6.59203,15.06177 -11.13382,15.60914 -11.0384,-0.32633 -11.2877,-3.83572 -15.78886,-13.21241 -4.50113,-9.37671 1.29008,-21.19083 10.99466,-22.32566 0.60653,-0.071 1.20361,-0.0927 1.78791,-0.069 z m -61.67607,24.46205 c -1.29919,1.4e-4 -2.69525,0.10738 -4.22443,0.29008 -8.07284,1.99031 -12.35896,5.25921 -17.45979,9.94352 -6.40311,6.12205 -12.35238,12.48981 -14.31737,25.5896 -0.43592,2.90615 -0.6675,4.51897 -0.83626,5.73342 -1.56021,-3.48251 -3.56961,-6.58444 -5.4625,-9.93672 -8.22259,7.23714 -17.90545,15.64996 -24.54882,21.97463 20.59497,37.25044 23.8496,43.05495 40.55364,75.11481 12.44563,-12.18473 16.44124,-16.14748 26.17358,-25.05538 -8.48519,-14.43511 -16.85176,-26.67781 -19.99186,-42.42633 -1.54179,-8.54789 1.48903,-15.89375 6.15703,-18.42901 6.64262,-3.60774 10.11724,0.021 13.66869,6.85913 3.55144,6.83816 14.167,25.84436 20.48942,36.74201 5.63262,-5.35244 17.98083,-15.77125 25.07533,-22.58963 -6.28835,-11.2184 -14.6479,-26.629 -20.49988,-37.45146 -11.37554,-21.12659 -15.68247,-26.35997 -24.77678,-26.35867 z m -93.11948,41.78112 c -8.68698,7.80392 -16.7089,15.12465 -26.06035,23.40047 -3.64224,11.78815 -4.05607,14.93199 -7.33416,26.15145 3.86042,7.0075 10.05886,18.23053 15.56294,28.93072 3.03955,-9.6019 5.64914,-18.03356 8.79062,-26.84007 12.29947,23.43925 25.96675,51.73836 37.32888,70.85736 10.42517,-9.94424 13.73237,-12.77826 24.47661,-22.46123 -13.99432,-25.86223 -43.75901,-82.72197 -52.76454,-100.0387 z M 408.38,661.41736 c -4.63038,4.09754 -14.50746,13.00849 -25.58619,23.11678 -11.07833,10.10875 -23.3583,21.41325 -32.79558,30.29949 0.1269,0.73734 1.04046,2.91855 2.03153,4.84511 8.00606,15.62209 28.25509,51.67581 28.25509,51.67581 l 13.03029,-11.87136 c 10.96337,-9.98761 13.64028,-11.96433 16.87538,-12.46123 7.41266,-1.13855 10.89151,7.2913 6.72591,16.29696 -3.90772,8.44825 -7.41823,9.82694 -17.91464,17.99763 -12.02106,9.35736 -4.9053,3.30942 -12.40127,9.48426 3.04066,3.60681 15.7621,18.16426 16.79514,19.48158 9.56161,-5.11965 11.5976,-5.70451 27.0896,-18.55085 15.49201,-12.84634 26.99003,-43.49709 23.31577,-58.60727 -3.67422,-15.11015 -10.22522,-20.44421 -20.03651,-23.51251 -9.81129,-3.0683 -24.15021,5.05127 -30.44783,10.37357 -7.38285,6.2395 -6.99142,6.26049 -6.99142,6.26049 l -6.74499,-13.45591 c 10.98307,-10.83511 16.91894,-16.4408 30.96228,-29.39778 -3.16413,-7.81873 -10.90761,-18.93637 -12.16256,-21.97477 z"
       id="path769"
       inkscape:connector-curvature="0" />
    <text
       xml:space="preserve"
       style="font-style:normal;font-variant:normal;font-weight:normal;font-stretch:normal;font-size:25px;line-height:25px;font-family:'Noto Sans';-inkscape-font-specification:'Noto Sans';letter-spacing:0px;word-spacing:0px;fill:#ffffff;fill-opacity:1;stroke:none;stroke-width:1px;stroke-linecap:butt;stroke-linejoin:miter;stroke-opacity:1;"
       x="279.65216"
       y="914.62305"
       id="text1013"><tspan
         sodipodi:role="line"
         id="tspan1011"
         x="279.65216"
         y="934.01691" /></text>
    <flowRoot
       xml:space="preserve"
       id="flowRoot1015"
       style="font-style:normal;font-variant:normal;font-weight:bold;font-stretch:normal;font-size:25px;line-height:25px;font-family:'Noto Sans';-inkscape-font-specification:'Noto Sans Bold';letter-spacing:0px;word-spacing:0px;fill:#000000;fill-opacity:1;stroke:none;stroke-width:1px;stroke-linecap:butt;stroke-linejoin:miter;stroke-opacity:1;"
       transform="translate(0,284.36216)"><flowRegion
         id="flowRegion1017"
         style="-inkscape-font-specification:'Noto Sans Bold';font-family:'Noto Sans';font-weight:bold;font-style:normal;font-stretch:normal;font-variant:normal;"><rect
           id="rect1019"
           width="530.08698"
           height="42.782608"
           x="281.73914"
           y="607.30432"
           style="-inkscape-font-specification:'Noto Sans Bold';font-family:'Noto Sans';font-weight:bold;font-style:normal;font-stretch:normal;font-variant:normal;" /></flowRegion><flowPara
         id="flowPara1021" /></flowRoot>    <text
       xml:space="preserve"
       style="font-style:normal;font-variant:normal;font-weight:bold;font-stretch:normal;font-size:25px;line-height:25px;font-family:Arial;-inkscape-font-specification:'Arial Bold';letter-spacing:0px;word-spacing:0px;fill:#000000;fill-opacity:1;stroke:none;stroke-width:1px;stroke-linecap:butt;stroke-linejoin:miter;stroke-opacity:1"
       x="385.55347"
       y="885.57086"
       id="text1025"><tspan
         sodipodi:role="line"
         id="tspan1023"
         x="385.55347"
         y="885.57086"
         style="font-style:normal;font-variant:normal;font-weight:normal;font-stretch:normal;font-family:'Noto Sans';-inkscape-font-specification:'Noto Sans';fill:#ffffff">Never forget the past</tspan></text>
    <text
       id="text1049"
       y="917.74475"
       x="398.92627"
       style="font-style:normal;font-variant:normal;font-weight:bold;font-stretch:normal;font-size:25px;line-height:25px;font-family:Arial;-inkscape-font-specification:'Arial Bold';letter-spacing:0px;word-spacing:0px;fill:#000000;fill-opacity:1;stroke:none;stroke-width:1px;stroke-linecap:butt;stroke-linejoin:miter;stroke-opacity:1"
       xml:space="preserve"><tspan
         style="font-style:normal;font-variant:normal;font-weight:normal;font-stretch:normal;font-family:'Noto Sans';-inkscape-font-specification:'Noto Sans';fill:#ffffff"
         y="917.74475"
         x="398.92627"
         id="tspan1047"
         sodipodi:role="line">Build for the future</tspan></text>
  </g>
</svg>
