<?xml version="1.0" encoding="UTF-8" standalone="no"?>
<!-- Created with Inkscape (http://www.inkscape.org/) -->

<svg
   xmlns:dc="http://purl.org/dc/elements/1.1/"
   xmlns:cc="http://creativecommons.org/ns#"
   xmlns:rdf="http://www.w3.org/1999/02/22-rdf-syntax-ns#"
   xmlns:svg="http://www.w3.org/2000/svg"
   xmlns="http://www.w3.org/2000/svg"
   xmlns:sodipodi="http://sodipodi.sourceforge.net/DTD/sodipodi-0.dtd"
   xmlns:inkscape="http://www.inkscape.org/namespaces/inkscape"
   width="3000"
   height="2000"
   viewBox="0 0 3000 2000"
   id="svg2"
   version="1.1"
   inkscape:version="0.92.4 (5da689c313, 2019-01-14)"
   sodipodi:docname="Quintus_X210_splash.svg"
   inkscape:export-filename="/home/quintus/Desktop/Quintus_T70_splash/Quintus_T70_QXGA.png"
   inkscape:export-xdpi="180"
   inkscape:export-ydpi="180">
  <defs
     id="defs4" />
  <sodipodi:namedview
     id="base"
     pagecolor="#000000"
     bordercolor="#666666"
     borderopacity="1.0"
     inkscape:pageopacity="0"
     inkscape:pageshadow="2"
     inkscape:zoom="0.26208736"
     inkscape:cx="1516.4172"
     inkscape:cy="993.71115"
     inkscape:document-units="px"
     inkscape:current-layer="layer1"
     showgrid="false"
     units="px"
     showborder="true"
     inkscape:snap-global="true"
     inkscape:window-width="1400"
     inkscape:window-height="989"
     inkscape:window-x="0"
     inkscape:window-y="27"
     inkscape:window-maximized="1" />
  <metadata
     id="metadata7">
    <rdf:RDF>
      <cc:Work
         rdf:about="">
        <dc:format>image/svg+xml</dc:format>
        <dc:type
           rdf:resource="http://purl.org/dc/dcmitype/StillImage" />
        <dc:title />
      </cc:Work>
    </rdf:RDF>
  </metadata>
  <g
     inkscape:label="Layer 1"
     inkscape:groupmode="layer"
     id="layer1"
     transform="translate(0,947.63784)">
    <rect
       style="opacity:1;fill:#000000;fill-opacity:1;fill-rule:nonzero;stroke:none;stroke-width:1.00157475;stroke-linecap:butt;stroke-linejoin:miter;stroke-miterlimit:4;stroke-dasharray:none;stroke-opacity:1"
       id="rect33"
       width="3000"
       height="2000"
       x="0"
       y="-943.1557"
       inkscape:export-xdpi="95.999992"
       inkscape:export-ydpi="95.999992" />
    <path
       style="opacity:1;fill:#4d4d4d;fill-opacity:1;fill-rule:nonzero;stroke:none;stroke-width:5.19220829;stroke-linecap:butt;stroke-linejoin:miter;stroke-miterlimit:4;stroke-dasharray:none;stroke-opacity:0.38207547"
       d="m 1799.6572,-938.25305 c -71.8923,180.36176 -38.708,392.72938 99.945,543.67085 194.1767,211.00788 522.6432,224.65365 733.6529,30.47885 162.9489,-149.94694 208.1668,-379.96737 130.9106,-574.1497 h -201.0511 a 338.79158,338.79158 0 0 1 6.0593,8.47283 338.79158,338.79158 0 0 1 16.8493,29.37857 338.79158,338.79158 0 0 1 13.8324,30.90986 338.79158,338.79158 0 0 1 10.6785,32.13693 338.79158,338.79158 0 0 1 7.4182,33.03948 338.79158,338.79158 0 0 1 4.0817,33.62259 338.79158,338.79158 0 0 1 0.8468,23.96326 338.79158,338.79158 0 0 1 -1.6935,33.82034 338.79158,338.79158 0 0 1 -5.0604,33.48569 338.79158,338.79158 0 0 1 -8.3765,32.8113 338.79158,338.79158 0 0 1 -11.6115,31.81243 338.79158,338.79158 0 0 1 -14.7298,30.49407 338.79158,338.79158 0 0 1 -17.7012,28.87151 338.79158,338.79158 0 0 1 -20.495,26.95994 338.79158,338.79158 0 0 1 -23.0861,24.77961 338.79158,338.79158 0 0 1 -25.4438,22.35084 338.79158,338.79158 0 0 1 -27.5431,19.69896 338.79158,338.79158 0 0 1 -29.3786,16.84931 338.79158,338.79158 0 0 1 -30.9098,13.83238 338.79158,338.79158 0 0 1 -32.137,10.6785 338.79158,338.79158 0 0 1 -33.0394,7.41816 338.79158,338.79158 0 0 1 -33.6226,4.08178 338.79158,338.79158 0 0 1 -23.9633,0.84677 338.79158,338.79158 0 0 1 -33.8203,-1.69357 338.79158,338.79158 0 0 1 -33.4857,-5.06035 338.79158,338.79158 0 0 1 -32.8113,-8.37651 338.79158,338.79158 0 0 1 -31.8124,-11.61147 338.79158,338.79158 0 0 1 -30.4941,-14.72985 338.79158,338.79158 0 0 1 -28.8715,-17.70117 338.79158,338.79158 0 0 1 -26.96,-20.49502 338.79158,338.79158 0 0 1 -24.7796,-23.08607 338.79158,338.79158 0 0 1 -22.3508,-25.44384 338.79158,338.79158 0 0 1 -19.699,-27.54306 338.79158,338.79158 0 0 1 -16.8493,-29.37855 338.79158,338.79158 0 0 1 -13.8324,-30.90986 338.79158,338.79158 0 0 1 -10.6785,-32.13694 338.79158,338.79158 0 0 1 -7.4181,-33.03948 338.79158,338.79158 0 0 1 -4.0818,-33.62259 338.79158,338.79158 0 0 1 -0.8468,-23.96326 338.79158,338.79158 0 0 1 1.6936,-33.82034 338.79158,338.79158 0 0 1 5.0604,-33.48569 338.79158,338.79158 0 0 1 8.3765,-32.81131 338.79158,338.79158 0 0 1 11.6114,-31.81241 338.79158,338.79158 0 0 1 14.7299,-30.49408 338.79158,338.79158 0 0 1 17.7012,-28.87152 338.79158,338.79158 0 0 1 0.1724,-0.22817 z"
       id="path3439"
       inkscape:connector-curvature="0" />
    <text
       xml:space="preserve"
       style="font-style:normal;font-variant:normal;font-weight:bold;font-stretch:normal;font-size:31.15324974px;line-height:0%;font-family:Arial;-inkscape-font-specification:'Arial Bold';letter-spacing:0px;word-spacing:0px;fill:#ffffff;fill-opacity:1;stroke:none;stroke-width:2.59610415px;stroke-linecap:butt;stroke-linejoin:miter;stroke-opacity:1"
       x="1830.6001"
       y="1050.6108"
       id="text3407"
       transform="scale(1.0720787,0.93276735)"><tspan
         sodipodi:role="line"
         id="tspan3409"
         x="1830.6001"
         y="1050.6108"
         style="font-style:normal;font-variant:normal;font-weight:normal;font-stretch:normal;font-size:83.49684143px;line-height:1.25;font-family:'Noto Sans';-inkscape-font-specification:'Noto Sans';stroke-width:2.59610415px"> </tspan></text>
    <text
       xml:space="preserve"
       style="font-style:normal;font-variant:normal;font-weight:bold;font-stretch:normal;font-size:31.15324974px;line-height:0%;font-family:Arial;-inkscape-font-specification:'Arial Bold';letter-spacing:0px;word-spacing:0px;fill:#666666;fill-opacity:1;stroke:none;stroke-width:2.59610415px;stroke-linecap:butt;stroke-linejoin:miter;stroke-opacity:1"
       x="-219.57219"
       y="369.05206"
       id="text3426"
       transform="rotate(-42.45274)"><tspan
         sodipodi:role="line"
         id="tspan3428"
         x="-219.57219"
         y="369.05206"
         style="font-style:normal;font-variant:normal;font-weight:300;font-stretch:normal;font-size:64.90260315px;line-height:1.25;font-family:'Noto Sans CJK SC';-inkscape-font-specification:'Noto Sans CJK SC Light';fill:#666666;stroke-width:2.59610415px">Never forget the past. Build for the future.</tspan></text>
    <g
       id="g5261"
       transform="matrix(2.7901768,0,0,2.7946129,132.28173,-1885.3899)">
      <path
         id="rect3441"
         d="M 829.5666,616.26838 355.6252,1052.3622 h 8.35547 L 833.39864,620.43244 Z"
         style="opacity:1;fill:#fd0201;fill-opacity:1;fill-rule:nonzero;stroke:none;stroke-width:2;stroke-linecap:butt;stroke-linejoin:miter;stroke-miterlimit:4;stroke-dasharray:none;stroke-opacity:0.38207547"
         inkscape:connector-curvature="0" />
      <path
         id="path4276"
         d="m 1022.4766,438.75711 -452.04691,415.94532 3.83008,4.16211 448.21683,-412.42188 z"
         style="opacity:1;fill:#01ff00;fill-opacity:1;fill-rule:nonzero;stroke:none;stroke-width:2;stroke-linecap:butt;stroke-linejoin:miter;stroke-miterlimit:4;stroke-dasharray:none;stroke-opacity:0.38207547"
         inkscape:connector-curvature="0" />
      <path
         inkscape:connector-curvature="0"
         id="path4256"
         d="m 1024.9687,436.47 -218.23628,200.80664 3.83008,4.16211 214.4062,-197.28125 z"
         style="opacity:1;fill:#0000fd;fill-opacity:1;fill-rule:nonzero;stroke:none;stroke-width:2;stroke-linecap:butt;stroke-linejoin:miter;stroke-miterlimit:4;stroke-dasharray:none;stroke-opacity:0.38207547" />
    </g>
    <g
       id="g5254"
       transform="matrix(2.5961041,0,0,2.5961041,360.47974,-1676.4868)">
      <text
         id="text3418"
         y="1037.1049"
         x="783.28424"
         style="font-style:normal;font-variant:normal;font-weight:bold;font-stretch:normal;line-height:0%;font-family:Arial;-inkscape-font-specification:'Arial Bold';letter-spacing:0px;word-spacing:0px;fill:#ffffff;fill-opacity:1;stroke:none;stroke-width:1px;stroke-linecap:butt;stroke-linejoin:miter;stroke-opacity:1"
         xml:space="preserve"><tspan
           style="font-style:normal;font-variant:normal;font-weight:300;font-stretch:normal;font-size:25px;line-height:1.25;font-family:'Noto Sans CJK SC';-inkscape-font-specification:'Noto Sans CJK SC Light'"
           y="1037.1049"
           x="783.28424"
           id="tspan3420"
           sodipodi:role="line">made by </tspan></text>
      <g
         id="g5250">
        <path
           sodipodi:nodetypes="zzczzzzzzzczccccccszcccccczccccsczccczccczccccczscccczcczsczcccssssccsssscccccccccccsczccccccccccc"
           inkscape:connector-curvature="0"
           id="path5161"
           style="fill:#ffffff"
           d="m 947.36894,1028.5011 c 1.36345,0.962 0.98945,3.1852 -0.18529,4.2993 -1.17474,1.1142 -2.51532,1.1307 -3.15523,0.6825 -1.37102,-1.2962 -1.01272,-1.7626 -0.54387,-3.4451 0.46884,-1.6825 2.52094,-2.4987 3.88439,-1.5367 z m 32.18273,-1.9609 c 2.71425,0.1435 4.06186,1.2027 3.6171,3.7563 -0.44477,2.5537 -2.42243,4.5451 -4.67618,4.6666 -2.25374,0.1215 -3.79898,-1.7261 -3.7266,-3.2488 0.0724,-1.5227 2.07143,-5.3176 4.78568,-5.1741 z m -46.43302,-2.9937 c -1.49712,0.036 -2.96385,0.1545 -4.67109,1.5665 -1.70724,1.4119 -0.75711,0.6645 -0.75711,0.6645 0.19785,-0.6267 0.2869,-1.2567 0.4215,-1.9057 -1.8531,-0.032 -4.02304,-0.083 -5.57333,-0.049 -1.51661,6.9928 -1.74706,8.0877 -3.18253,13.9899 2.94168,-0.1057 3.89164,-0.1461 6.12301,-0.1513 0.52341,-2.7672 0.81815,-5.247 2.16907,-7.5702 0.75398,-1.2425 1.95724,-1.8152 2.83431,-1.6008 1.24806,0.3051 1.28752,1.1534 0.97989,2.411 -0.30763,1.2576 -1.06779,4.8378 -1.47356,6.9174 1.31331,-0.028 4.04636,0.076 5.70907,0.032 0.44579,-2.1157 1.09356,-4.9904 1.55096,-7.0071 1.02745,-4.4928 0.92368,-5.3441 -0.79859,-6.5529 -1.25055,-0.6696 -2.16038,-0.7489 -3.3316,-0.7442 z m 46.76926,-0.2871 c -4.34421,-0.1553 -8.32488,5.0144 -8.29745,9.0192 0.0274,4.0047 2.73459,6.0202 6.24011,6.0442 5.41033,-0.1934 7.6473,-4.7889 8.20894,-7.5329 0.96329,-4.8177 -2.27666,-7.4692 -6.1516,-7.5305 z m -11.53505,-0.1053 c -1.60993,0.012 -3.23002,0.4755 -4.55322,1.3541 -2.26091,1.5011 -3.5996,4.1777 -3.59404,7.1853 0.40881,3.0876 2.14269,5.3721 4.66456,6.3242 2.52187,0.9521 5.10869,-0.055 6.56131,-0.791 -0.0853,-0.6996 0.0309,-1.9498 0.0879,-3.1021 -1.62736,0.7517 -3.2547,1.4358 -5.47179,0.6262 -2.68867,-1.0268 -3.04544,-4.1362 -1.19427,-6.5108 1.85117,-2.3746 4.65729,-1.5111 7.30274,-0.8196 0.0558,-1.1903 0.11126,-2.1833 0.24739,-3.3432 -1.30561,-0.5312 -2.80941,-0.9245 -4.05061,-0.9231 z m 27.07265,-0.019 c -1.57533,-0.2219 -3.85999,0.8667 -4.88947,2.1941 0.14201,-0.5379 0.1753,-0.7965 0.40198,-1.5235 -0.87181,0.042 -1.80252,-0.051 -3.28131,0.11 -1.18586,5.8245 -1.5229,7.4772 -2.95731,14.2055 1.78786,0.027 2.08159,0 3.33498,-0.02 0.99707,-5.1072 1.41863,-6.8994 2.22555,-9.1197 0.80692,-2.2203 1.83994,-2.3413 3.02253,-2.3413 1.39598,0 2.04372,0.789 1.56279,2.3433 -0.77115,2.4314 -1.89097,6.6697 -2.37614,9.0177 1.52876,-0.032 2.37757,-0.055 3.20041,-0.01 0.89688,-3.4369 1.9313,-8.5875 4.17671,-10.6238 1.28657,-1.1324 2.45357,-1.2276 3.03487,-0.3786 0.5814,0.8491 -2.0317,8.6564 -2.7467,10.9914 1.189,-0.045 2.753,0 3.6779,0.018 0.7418,-3.1326 3.6425,-11.2569 2.3538,-13.2532 -1.2887,-1.9963 -4.1478,-2.0097 -6.64954,0.2495 -0.68985,0.623 -1.18884,0.9606 -1.10897,0.7505 -0.0551,-1.6088 -1.40675,-2.3885 -2.98208,-2.6104 z m -93.22357,-3.6649 c -2.53651,0 -5.35919,0.017 -7.55053,0.053 -0.0658,0.1065 -0.19166,0.4826 -0.27955,0.8359 -0.71649,2.8608 -2.14424,9.6647 -2.14424,9.6647 h 2.98128 c 2.50837,0 3.06946,0.058 3.53717,0.3636 1.07166,0.701 0.57774,2.149 -0.95478,2.7995 -1.43767,0.6103 -2.0385,0.3832 -4.2853,0.2095 -2.57315,-0.199 -0.99334,-0.1447 -2.63565,-0.2263 -0.0134,0.7961 -0.0105,4.0602 -0.0252,4.3421 1.78834,0.4483 2.11317,0.6068 5.51681,0.765 3.40365,0.1581 8.27789,-2.3607 9.48973,-4.665 1.21183,-2.3042 0.96973,-3.7151 0.0601,-5.214 -0.90966,-1.4989 -3.64068,-2.1161 -5.03542,-2.1679 -1.6351,-0.061 -1.58756,-0.014 -1.58756,-0.014 l 0.63638,-2.447 c 2.60514,-0.1036 3.98527,-0.1282 7.21652,-0.1486 0.46606,-1.336 0.71522,-3.6047 0.8931,-4.1267 -1.04599,-0.015 -3.2963,-0.026 -5.8328,-0.024 z m 43.64816,0.02 c -1.99198,0.01 -4.75553,-0.019 -5.47334,-0.012 -1.60786,7.017 -2.14096,9.6472 -4.14798,18.452 1.84896,-0.01 3.28267,0.01 5.23544,-0.011 0.1799,-0.551 0.28855,-1.0035 0.41498,-1.5863 0.79352,1.8226 2.85947,1.9874 4.17491,1.9433 2.1005,-0.076 3.6441,-0.7442 5.11713,-2.2152 1.80172,-1.7991 3.05487,-5.2495 2.82549,-7.7792 -0.22872,-1.8326 -1.38541,-3.9441 -3.25124,-4.4774 -1.86584,-0.5333 -3.8723,-0.1809 -5.76947,-0.2182 0.29854,-1.4569 0.602,-2.7537 0.87408,-4.0959 z m -31.27167,-0.1719 c -1.77522,1.0574 -2.1776,1.4027 -3.84315,2.4306 -0.28707,1.3138 -0.74497,3.42 -1.23312,5.3818 1.45526,-0.853 2.72566,-1.6087 4.10547,-2.3509 -1.0384,4.3251 -2.44278,9.4123 -3.12026,13.0914 2.43494,-0.056 3.17158,-0.034 5.61814,-0.02 1.09176,-4.8203 3.61993,-15.304 4.39744,-18.4901 -1.97533,-0.014 -3.81201,-0.012 -5.92452,-0.042 z" />
        <path
           style="fill:#fd0201;fill-opacity:1"
           d="m 956.4874,1033.5041 a 2.2784866,2.2784866 0 0 0 -2.27841,2.2788 2.2784866,2.2784866 0 0 0 2.27841,2.2784 2.2784866,2.2784866 0 0 0 2.27842,-2.2784 2.2784866,2.2784866 0 0 0 -2.27842,-2.2788 z"
           id="path5092"
           inkscape:connector-curvature="0" />
      </g>
    </g>
    <path
       style="opacity:1;fill:#4d4d4d;fill-opacity:1;fill-rule:nonzero;stroke:none;stroke-width:5.19220829;stroke-linecap:butt;stroke-linejoin:miter;stroke-miterlimit:4;stroke-dasharray:none;stroke-opacity:0.38207547"
       d="m 954.36678,-277.02212 c -9.84707,9.00695 -19.15688,18.22088 -27.9994,27.63431 -8.84246,9.41342 -17.21866,19.02601 -25.20552,28.83095 -7.98686,9.80492 -15.5827,19.80555 -22.86295,29.98703 -7.28026,10.18148 -14.24397,20.54424 -20.96656,31.08733 -6.72263,10.54309 -13.2024,21.26241 -19.51644,32.15213 -6.31399,10.88975 -12.46314,21.9499 -18.51754,33.171331 -12.10878,22.442852 -23.84867,45.53769 -35.81305,69.217612 L 914.40604,118.18402 c 4.58675,-13.36557 9.23055,-26.495055 13.9997,-39.382713 4.76917,-12.887632 9.66293,-25.53232 14.75519,-37.927445 5.09229,-12.395125 10.38052,-24.538558 15.93663,-36.4265853 5.5561,-11.8880535 11.37828,-23.5187817 17.53891,-34.8851487 6.16066,-11.366367 12.66126,-22.467983 19.56713,-33.298073 6.9059,-10.830115 14.2193,-21.391196 22.0111,-31.670444 7.7918,-10.279271 16.0626,-20.278271 24.881,-29.992121 8.8185,-9.71381 18.186,-19.13936 28.1718,-28.27318 9.015,-8.2458 18.0629,-15.72678 27.1324,-22.35085 9.0694,-6.62403 18.1605,-12.39504 27.2641,-17.21946 4.5518,-2.4122 9.1035,-4.58664 13.66,-6.5156 4.5565,-1.92896 9.1165,-3.61157 13.6752,-5.03504 4.5586,-1.42347 9.1168,-2.58769 13.6752,-3.48343 4.5583,-0.89576 9.1147,-1.52017 13.67,-1.86595 4.5554,-0.3458 9.1101,-0.414 13.66,-0.18769 4.5499,0.22638 9.0979,0.74596 13.6397,1.56677 4.5418,0.82081 9.078,1.94459 13.6092,3.38205 4.5313,1.43744 9.0557,3.18685 13.5738,5.26319 4.5181,2.07633 9.0308,4.47789 13.5332,7.21535 4.5024,2.73746 8.9933,5.8126 13.4775,9.2334 4.4841,3.42081 8.9582,7.19101 13.4216,11.31738 4.4634,4.12641 8.9157,8.60804 13.3558,13.46223 6.3429,6.93458 11.8754,13.88381 16.7174,20.8956 4.8421,7.01179 8.9971,14.08914 12.58,21.27082 3.5829,7.18165 6.5967,14.47055 9.1624,21.914751 2.5657,7.444224 4.6847,15.043281 6.4751,22.842678 1.7903,7.799398 3.2509,15.797138 4.5077,24.044389 1.2568,8.247252 2.3053,16.742276 3.2704,25.530036 1.9303,17.5755471 3.5202,36.323832 5.7348,56.61737 2.2146,20.293564 5.8956,49.408612 11.0182,87.496836 5.1226,38.08819 11.6901,85.15281 19.6736,141.35075 15.9671,112.39589 37.6071,261.32584 64.7353,448.05099 L 1932.9053,262.55166 1828.3716,148.26731 1574.288,380.67439 1518.0154,-28.399593 c -2.8354,-25.935859 -5.5382,-50.337005 -9.1573,-73.613757 -1.8096,-11.63838 -3.8492,-22.99631 -6.2469,-34.12456 -2.3977,-11.12828 -5.1545,-22.02413 -8.4018,-32.74542 -3.2474,-10.72126 -6.9843,-21.26824 -11.3428,-31.68563 -4.3584,-10.41741 -9.3385,-20.70842 -15.0696,-30.92508 -5.731,-10.21665 -12.2121,-20.3548 -19.5772,-30.47379 -64.7979,-126.50193 -309.7102,-199.11981 -493.85302,-15.05429 z"
       id="rect4304-3"
       inkscape:connector-curvature="0"
       sodipodi:nodetypes="ccccccsccsssccccsccsscccccscsccccccscssscccccssssscc" />
    <rect
       style="opacity:1;fill:#4d4d4d;fill-opacity:1;fill-rule:nonzero;stroke:none;stroke-width:2.26678276;stroke-linecap:butt;stroke-linejoin:miter;stroke-miterlimit:4;stroke-dasharray:none;stroke-opacity:1"
       id="rect5188"
       width="179.94189"
       height="1027.46"
       x="1337.2291"
       y="508.0835"
       transform="rotate(-43.848416)" />
    <path
       style="opacity:1;fill:#4d4d4d;fill-opacity:1;fill-rule:nonzero;stroke:none;stroke-width:5.31195831;stroke-linecap:butt;stroke-linejoin:miter;stroke-miterlimit:4;stroke-dasharray:none;stroke-opacity:0.38207547"
       d="M 700.11133 893.79688 L 541.19336 1039.1543 L 602.45898 1448.0254 L 206.33398 1345.4434 L 48.339844 1489.9609 L 48.339844 1492.3789 L 616.80664 1639.2148 L 677.88281 1998.0898 L 861.72461 1998.0898 L 806.90039 1673.8203 L 1274.4355 1811.1641 C 1274.4355 1811.1641 1285.7765 1802.6163 1302.4492 1789.6465 C 1319.1218 1776.6766 1341.1263 1759.2797 1362.4668 1741.584 C 1373.1371 1732.7362 1383.642 1723.8136 1393.2285 1715.3301 C 1402.815 1706.8465 1411.4843 1698.8056 1418.4863 1691.7168 C 1425.4885 1684.628 1430.8212 1678.4936 1433.7383 1673.8301 C 1435.197 1671.4983 1436.0511 1669.5322 1436.207 1668 C 1436.284 1667.2339 1436.1802 1666.5753 1435.9062 1666.0332 C 1435.6236 1665.4911 1435.1575 1665.0656 1434.4902 1664.7637 L 804.17188 1490.7695 L 700.11133 893.79688 z "
       transform="translate(0,-947.63784)"
       id="path4239" />
  </g>
</svg>
