<?xml version="1.0" encoding="UTF-8" standalone="no"?>
<!-- Created with Inkscape (http://www.inkscape.org/) -->

<svg
   xmlns:dc="http://purl.org/dc/elements/1.1/"
   xmlns:cc="http://creativecommons.org/ns#"
   xmlns:rdf="http://www.w3.org/1999/02/22-rdf-syntax-ns#"
   xmlns:svg="http://www.w3.org/2000/svg"
   xmlns="http://www.w3.org/2000/svg"
   xmlns:sodipodi="http://sodipodi.sourceforge.net/DTD/sodipodi-0.dtd"
   xmlns:inkscape="http://www.inkscape.org/namespaces/inkscape"
   width="1000"
   height="400"
   viewBox="0 0 1000 400.00001"
   id="svg4266"
   version="1.1"
   inkscape:version="0.91 r13725"
   sodipodi:docname="51nb_logo.svg">
  <defs
     id="defs4268" />
  <sodipodi:namedview
     id="base"
     pagecolor="#ffffff"
     bordercolor="#666666"
     borderopacity="1.0"
     inkscape:pageopacity="0.0"
     inkscape:pageshadow="2"
     inkscape:zoom="0.7"
     inkscape:cx="513.46597"
     inkscape:cy="50.000002"
     inkscape:document-units="px"
     inkscape:current-layer="layer1"
     showgrid="false"
     inkscape:snap-nodes="false"
     inkscape:snap-global="false"
     inkscape:window-width="1400"
     inkscape:window-height="988"
     inkscape:window-x="0"
     inkscape:window-y="27"
     inkscape:window-maximized="1"
     units="px" />
  <metadata
     id="metadata4271">
    <rdf:RDF>
      <cc:Work
         rdf:about="">
        <dc:format>image/svg+xml</dc:format>
        <dc:type
           rdf:resource="http://purl.org/dc/dcmitype/StillImage" />
        <dc:title></dc:title>
      </cc:Work>
    </rdf:RDF>
  </metadata>
  <g
     inkscape:label="Layer 1"
     inkscape:groupmode="layer"
     id="layer1"
     transform="translate(0,-652.36216)">
    <g
       id="g5180"
       transform="matrix(1.6585804,0,0,1.6585804,-20.686112,470.55259)">
      <path
         d="m 307.06445,226.1543 c 6.64926,4.69163 4.82536,15.53324 -0.9036,20.9669 -5.72895,5.43366 -12.26668,5.51384 -15.38738,3.32802 -6.68616,-6.32103 -4.93879,-8.59542 -2.65235,-16.80078 2.28644,-8.20536 12.29407,-12.18577 18.94333,-7.49414 z m 156.9481,-9.56306 c 13.2368,0.69978 19.80881,5.86547 17.63979,18.31892 -2.16902,12.45345 -11.81366,22.16532 -22.80468,22.75781 -10.99102,0.59249 -18.5268,-8.41787 -18.17383,-15.84375 0.35297,-7.42588 10.10192,-25.93277 23.33872,-25.23298 z m -226.4436,-14.59936 c -7.30114,0.17587 -14.45407,0.75345 -22.77989,7.63916 -8.32582,6.88571 -3.69228,3.24072 -3.69228,3.24072 0.96486,-3.05624 1.39917,-6.1287 2.05556,-9.29346 -9.03713,-0.1544 -19.61947,-0.40347 -27.17989,-0.23749 -7.39616,34.10208 -8.52003,39.44166 -15.5205,68.22548 14.34591,-0.51558 18.97867,-0.71254 29.86055,-0.73799 2.55257,-13.49479 3.98998,-25.58813 10.57812,-36.91796 3.67696,-6.05936 9.54503,-8.85216 13.82227,-7.80664 6.08654,1.48778 6.27896,5.62453 4.77871,11.7576 -1.50025,6.13306 -5.20735,23.59326 -7.18623,33.73477 6.40473,-0.13464 19.73324,0.37065 27.84189,0.1543 2.17401,-10.31788 5.33308,-24.33727 7.56368,-34.17207 5.01065,-21.91074 4.50458,-26.06213 -3.89453,-31.95703 -6.09864,-3.26577 -10.5357,-3.65222 -16.24746,-3.62939 z m 228.08339,-1.40008 c -21.18577,-0.75772 -40.59861,24.45407 -40.46484,43.98437 0.13377,19.5303 13.336,29.35953 30.43164,29.47656 26.38497,-0.9436 37.29421,-23.35464 40.0332,-36.73632 4.69773,-23.49489 -11.10279,-36.42607 -30,-36.72461 z m -56.2539,-0.51368 c -7.8513,0.0592 -15.75209,2.31897 -22.20508,6.60352 -11.02596,7.32083 -17.55444,20.3737 -17.52734,35.04102 1.99367,15.05788 10.44942,26.19857 22.74804,30.84179 12.29862,4.64322 24.91397,-0.26639 31.99805,-3.85714 -0.41593,-3.41218 0.15088,-9.50877 0.42885,-15.12863 -7.93631,3.66586 -15.87247,7.00243 -26.68471,3.05413 -13.11207,-5.00754 -14.85198,-20.17146 -5.82422,-31.75195 9.02776,-11.58049 22.71256,-7.36925 35.61384,-3.99693 0.27225,-5.80467 0.54262,-10.64759 1.20647,-16.30385 -6.36715,-2.59085 -13.70084,-4.50863 -19.7539,-4.50196 z m 132.02734,-0.0937 c -7.68252,-1.082 -18.82434,4.22653 -23.84487,10.70033 0.69255,-2.62353 0.8549,-3.88474 1.96039,-7.42997 -4.25165,0.20477 -8.79051,-0.24687 -16.00224,0.53628 -5.7832,28.40506 -7.42684,36.46468 -14.42215,69.27734 8.71898,0.13409 10.15145,-0.012 16.26395,-0.0974 4.86249,-24.90681 6.91834,-33.6468 10.85352,-44.47489 3.93518,-10.82809 8.973,-11.41797 14.74023,-11.41797 6.80789,1e-5 9.96676,3.84765 7.62137,11.42774 -3.76072,11.8572 -9.22186,32.52683 -11.58789,43.9774 7.45539,-0.15657 11.59485,-0.26728 15.6077,-0.048 4.37388,-16.76109 9.41849,-41.87938 20.36887,-51.80971 6.27416,-5.52274 11.96539,-5.98674 14.8005,-1.84625 2.83511,4.14049 -9.90849,42.21519 -13.39537,53.60239 5.79882,-0.21994 13.42588,0.009 17.93638,0.0893 3.61764,-15.27701 17.76362,-54.89766 11.47907,-64.63309 -6.28454,-9.73543 -20.22787,-9.80087 -32.42829,1.2168 -3.36428,3.03814 -5.79771,4.68465 -5.4082,3.66015 -0.26869,-7.84574 -6.86045,-11.64844 -14.54297,-12.73044 z M 86.794922,182.11133 c -12.369979,0.01 -26.135599,0.0819 -36.822266,0.25781 -0.320956,0.51932 -0.934694,2.35354 -1.363281,4.07617 -3.494172,13.95172 -10.457031,47.13281 -10.457031,47.13281 l 14.539062,0 c 12.232782,10e-6 14.969104,0.28165 17.25,1.77344 5.226268,3.41819 2.817536,10.4798 -4.65625,13.65235 -7.011176,2.97617 -9.941318,1.86869 -20.898437,1.02148 -12.548717,-0.97027 -4.844318,-0.7053 -12.853516,-1.10351 -0.06541,3.88238 -0.05096,19.80078 -0.123047,21.17578 8.721376,2.18623 10.305471,2.95923 26.904297,3.73046 16.598826,0.77123 40.369438,-11.51257 46.279297,-22.75 5.90986,-11.23742 4.72919,-18.1179 0.29297,-25.42773 -4.43622,-7.30983 -17.754797,-10.31972 -24.556642,-10.57227 -7.974004,-0.29603 -7.742187,-0.0664 -7.742187,-0.0664 l 3.103515,-11.9336 c 12.704664,-0.50508 19.435286,-0.625 35.193364,-0.7246 2.27285,-6.51525 3.48798,-17.57909 4.35546,-20.125 -5.10107,-0.0735 -16.075329,-0.12671 -28.445308,-0.11719 z m 212.862498,0.0981 c -9.71446,0.0303 -23.19167,-0.0942 -26.69229,-0.0607 -7.84115,34.22034 -10.44097,47.047 -20.2288,89.98603 9.01697,-0.0314 16.00886,0.045 25.53213,-0.0516 0.87732,-2.68679 1.40719,-4.89387 2.02373,-7.73603 3.86986,8.88844 13.94503,9.6924 20.36015,9.47705 10.24368,-0.37088 17.77144,-3.62928 24.95508,-10.80274 8.78659,-8.77413 14.89793,-25.60107 13.7793,-37.9375 -1.11542,-8.93718 -6.75631,-19.23474 -15.85557,-21.83544 -9.09927,-2.60071 -18.88437,-0.8822 -28.13642,-1.06426 1.45591,-7.1048 2.93579,-13.42904 4.26269,-19.97481 z m -152.50508,-0.83838 c -8.65734,5.15687 -10.61965,6.84093 -18.74218,11.85352 -1.39997,6.40753 -3.63307,16.6787 -6.01368,26.24609 7.097,-4.16008 13.29247,-7.84555 20.02149,-11.46484 -5.06402,21.09236 -11.91288,45.90159 -15.2168,63.84375 11.87465,-0.27213 15.46707,-0.16351 27.39844,-0.0996 5.32424,-23.50757 17.65356,-74.63407 21.44531,-90.17188 -9.63324,-0.0669 -18.59031,-0.0589 -28.89258,-0.20704 z"
         style="fill:#000000"
         id="path5161"
         inkscape:connector-curvature="0"
         sodipodi:nodetypes="zzczzzzzzzczccccccszcccccczccccsczccczccczccccczscccczcczsczcccssssccsssscccccccccccsczccccccccccc" />
      <path
         id="path5092"
         d="m 351.5332,250.55273 a 11.111678,11.111678 0 0 0 -11.11132,11.11329 11.111678,11.111678 0 0 0 11.11132,11.11132 11.111678,11.111678 0 0 0 11.11133,-11.11132 11.111678,11.111678 0 0 0 -11.11133,-11.11329 z"
         style="fill:#ff0000"
         inkscape:connector-curvature="0" />
    </g>
  </g>
</svg>
