<?xml version="1.0" encoding="UTF-8" standalone="no"?>
<!-- Created with Inkscape (http://www.inkscape.org/) -->

<svg
   xmlns:dc="http://purl.org/dc/elements/1.1/"
   xmlns:cc="http://creativecommons.org/ns#"
   xmlns:rdf="http://www.w3.org/1999/02/22-rdf-syntax-ns#"
   xmlns:svg="http://www.w3.org/2000/svg"
   xmlns="http://www.w3.org/2000/svg"
   xmlns:sodipodi="http://sodipodi.sourceforge.net/DTD/sodipodi-0.dtd"
   xmlns:inkscape="http://www.inkscape.org/namespaces/inkscape"
   width="1024"
   height="768"
   viewBox="0 0 1024 768.00001"
   id="svg2"
   version="1.1"
   inkscape:version="0.91 r13725"
   sodipodi:docname="Quintus_T70_splash.svg"
   inkscape:export-filename="/home/quintus/Desktop/Quintus_T70_splash/Quintus_T70_QXGA.png"
   inkscape:export-xdpi="180"
   inkscape:export-ydpi="180">
  <defs
     id="defs4" />
  <sodipodi:namedview
     id="base"
     pagecolor="#000000"
     bordercolor="#666666"
     borderopacity="1.0"
     inkscape:pageopacity="0"
     inkscape:pageshadow="2"
     inkscape:zoom="0.70710678"
     inkscape:cx="274.47379"
     inkscape:cy="324.57285"
     inkscape:document-units="px"
     inkscape:current-layer="layer1"
     showgrid="false"
     units="px"
     showborder="true"
     inkscape:snap-global="true"
     inkscape:window-width="1400"
     inkscape:window-height="988"
     inkscape:window-x="0"
     inkscape:window-y="27"
     inkscape:window-maximized="1" />
  <metadata
     id="metadata7">
    <rdf:RDF>
      <cc:Work
         rdf:about="">
        <dc:format>image/svg+xml</dc:format>
        <dc:type
           rdf:resource="http://purl.org/dc/dcmitype/StillImage" />
        <dc:title />
      </cc:Work>
    </rdf:RDF>
  </metadata>
  <g
     inkscape:label="Layer 1"
     inkscape:groupmode="layer"
     id="layer1"
     transform="translate(0,-284.36216)">
    <rect
       style="opacity:1;fill:#000000;fill-opacity:1;fill-rule:nonzero;stroke:none;stroke-width:2;stroke-linecap:butt;stroke-linejoin:miter;stroke-miterlimit:4;stroke-dasharray:none;stroke-opacity:0.38207547"
       id="rect4304"
       width="1024"
       height="768"
       x="0"
       y="284.36215"
       inkscape:export-xdpi="300"
       inkscape:export-ydpi="300" />
    <path
       style="font-style:normal;font-variant:normal;font-weight:bold;font-stretch:normal;font-size:medium;line-height:125%;font-family:'Noto Sans';-inkscape-font-specification:'Noto Sans Bold';letter-spacing:0px;word-spacing:0px;fill:#4d4d4d;fill-opacity:1;stroke:none;stroke-width:1px;stroke-linecap:butt;stroke-linejoin:miter;stroke-opacity:1"
       d="M 2 573.09961 L 23.699219 596.67969 L 105.0918 521.7793 L 328.15234 764.17773 L 391.70898 705.69141 L 168.64844 463.29297 L 250.04297 388.39453 L 202.24414 336.45117 L 2 520.71875 L 2 573.09961 z "
       id="path3436"
       transform="translate(0,284.36216)" />
    <path
       inkscape:connector-curvature="0"
       id="path3343"
       style="font-style:normal;font-variant:normal;font-weight:bold;font-stretch:normal;font-size:medium;line-height:125%;font-family:'Noto Sans';-inkscape-font-specification:'Noto Sans Bold';letter-spacing:0px;word-spacing:0px;fill:#4d4d4d;fill-opacity:1;stroke:none;stroke-width:1px;stroke-linecap:butt;stroke-linejoin:miter;stroke-opacity:1"
       d="M 532.45725,860.21395 422.3247,514.64224 274.50478,650.66929 226.3358,598.32429 457.40249,383.41533 c 48.83771,137.97213 94.62001,277.01712 141.48147,415.67135 z"
       sodipodi:nodetypes="ccccccc" />
    <path
       style="opacity:1;fill:#4d4d4d;fill-opacity:1;fill-rule:nonzero;stroke:none;stroke-width:2;stroke-linecap:butt;stroke-linejoin:miter;stroke-miterlimit:4;stroke-dasharray:none;stroke-opacity:0.38207547"
       d="M 567.37109 1.4960938 C 496.16965 77.902434 495.74597 196.23027 566.39844 273.14453 C 641.19388 354.4232 767.71674 359.67946 848.99609 284.88477 C 930.27662 210.08969 935.53379 83.565293 860.73828 2.2851562 C 860.47144 2.021383 860.20387 1.758361 859.93555 1.4960938 L 567.37109 1.4960938 z M 714.5 7 A 130.5 130.5 0 0 1 727.52734 7.6523438 A 130.5 130.5 0 0 1 740.42578 9.6015625 A 130.5 130.5 0 0 1 753.06445 12.828125 A 130.5 130.5 0 0 1 765.31836 17.300781 A 130.5 130.5 0 0 1 777.06445 22.974609 A 130.5 130.5 0 0 1 788.18555 29.792969 A 130.5 130.5 0 0 1 798.57031 37.6875 A 130.5 130.5 0 0 1 808.11523 46.580078 A 130.5 130.5 0 0 1 816.72461 56.380859 A 130.5 130.5 0 0 1 824.3125 66.990234 A 130.5 130.5 0 0 1 830.80273 78.306641 A 130.5 130.5 0 0 1 836.13086 90.212891 A 130.5 130.5 0 0 1 840.24414 102.5918 A 130.5 130.5 0 0 1 843.10156 115.31836 A 130.5 130.5 0 0 1 844.67383 128.26953 A 130.5 130.5 0 0 1 845 137.5 A 130.5 130.5 0 0 1 844.34766 150.52734 A 130.5 130.5 0 0 1 842.39844 163.42578 A 130.5 130.5 0 0 1 839.17188 176.06445 A 130.5 130.5 0 0 1 834.69922 188.31836 A 130.5 130.5 0 0 1 829.02539 200.06445 A 130.5 130.5 0 0 1 822.20703 211.18555 A 130.5 130.5 0 0 1 814.3125 221.57031 A 130.5 130.5 0 0 1 805.41992 231.11523 A 130.5 130.5 0 0 1 795.61914 239.72461 A 130.5 130.5 0 0 1 785.00977 247.3125 A 130.5 130.5 0 0 1 773.69336 253.80273 A 130.5 130.5 0 0 1 761.78711 259.13086 A 130.5 130.5 0 0 1 749.4082 263.24414 A 130.5 130.5 0 0 1 736.68164 266.10156 A 130.5 130.5 0 0 1 723.73047 267.67383 A 130.5 130.5 0 0 1 714.5 268 A 130.5 130.5 0 0 1 701.47266 267.34766 A 130.5 130.5 0 0 1 688.57422 265.39844 A 130.5 130.5 0 0 1 675.93555 262.17188 A 130.5 130.5 0 0 1 663.68164 257.69922 A 130.5 130.5 0 0 1 651.93555 252.02539 A 130.5 130.5 0 0 1 640.81445 245.20703 A 130.5 130.5 0 0 1 630.42969 237.3125 A 130.5 130.5 0 0 1 620.88477 228.41992 A 130.5 130.5 0 0 1 612.27539 218.61914 A 130.5 130.5 0 0 1 604.6875 208.00977 A 130.5 130.5 0 0 1 598.19727 196.69336 A 130.5 130.5 0 0 1 592.86914 184.78711 A 130.5 130.5 0 0 1 588.75586 172.4082 A 130.5 130.5 0 0 1 585.89844 159.68164 A 130.5 130.5 0 0 1 584.32617 146.73047 A 130.5 130.5 0 0 1 584 137.5 A 130.5 130.5 0 0 1 584.65234 124.47266 A 130.5 130.5 0 0 1 586.60156 111.57422 A 130.5 130.5 0 0 1 589.82812 98.935547 A 130.5 130.5 0 0 1 594.30078 86.681641 A 130.5 130.5 0 0 1 599.97461 74.935547 A 130.5 130.5 0 0 1 606.79297 63.814453 A 130.5 130.5 0 0 1 614.6875 53.429688 A 130.5 130.5 0 0 1 623.58008 43.884766 A 130.5 130.5 0 0 1 633.38086 35.275391 A 130.5 130.5 0 0 1 643.99023 27.6875 A 130.5 130.5 0 0 1 655.30664 21.197266 A 130.5 130.5 0 0 1 667.21289 15.869141 A 130.5 130.5 0 0 1 679.5918 11.755859 A 130.5 130.5 0 0 1 692.31836 8.8984375 A 130.5 130.5 0 0 1 705.26953 7.3261719 A 130.5 130.5 0 0 1 714.5 7 z "
       id="path3439"
       transform="translate(0,284.36216)" />
    <text
       xml:space="preserve"
       style="font-style:normal;font-variant:normal;font-weight:bold;font-stretch:normal;font-size:40.20294952px;line-height:125%;font-family:Arial;-inkscape-font-specification:'Arial Bold';letter-spacing:0px;word-spacing:0px;fill:#ffffff;fill-opacity:1;stroke:none;stroke-width:1px;stroke-linecap:butt;stroke-linejoin:miter;stroke-opacity:1"
       x="632.80792"
       y="1097.004"
       id="text3407"
       sodipodi:linespacing="125%"
       transform="scale(1.0720787,0.93276736)"><tspan
         sodipodi:role="line"
         id="tspan3409"
         x="632.80792"
         y="1097.004"
         style="font-style:normal;font-variant:normal;font-weight:normal;font-stretch:normal;font-size:32.16236115px;font-family:'Noto Sans';-inkscape-font-specification:'Noto Sans'" /></text>
    <text
       xml:space="preserve"
       style="font-style:normal;font-variant:normal;font-weight:bold;font-stretch:normal;font-size:25px;line-height:125%;font-family:Arial;-inkscape-font-specification:'Arial Bold';letter-spacing:0px;word-spacing:0px;fill:#666666;fill-opacity:1;stroke:none;stroke-width:1px;stroke-linecap:butt;stroke-linejoin:miter;stroke-opacity:1"
       x="-479.5788"
       y="570.2597"
       id="text3426"
       sodipodi:linespacing="125%"
       transform="matrix(0.73783434,-0.67498185,0.67498185,0.73783434,0,0)"><tspan
         sodipodi:role="line"
         id="tspan3428"
         x="-479.5788"
         y="570.2597"
         style="font-style:normal;font-variant:normal;font-weight:300;font-stretch:normal;font-family:'Noto Sans CJK SC';-inkscape-font-specification:'Noto Sans CJK SC Light';fill:#666666">retrospectively built with the spirit from 2006</tspan></text>
    <g
       id="g5261">
      <path
         id="rect3441"
         d="m 829.5666,616.26838 -473.9414,436.09382 8.35547,0 469.41797,-431.92976 -3.83204,-4.16406 z"
         style="opacity:1;fill:#fd0201;fill-opacity:1;fill-rule:nonzero;stroke:none;stroke-width:2;stroke-linecap:butt;stroke-linejoin:miter;stroke-miterlimit:4;stroke-dasharray:none;stroke-opacity:0.38207547"
         inkscape:connector-curvature="0" />
      <path
         id="path4276"
         d="m 1022.4766,438.75711 -452.04691,415.94532 3.83008,4.16211 448.21683,-412.42188 0,-7.68555 z"
         style="opacity:1;fill:#01ff00;fill-opacity:1;fill-rule:nonzero;stroke:none;stroke-width:2;stroke-linecap:butt;stroke-linejoin:miter;stroke-miterlimit:4;stroke-dasharray:none;stroke-opacity:0.38207547"
         inkscape:connector-curvature="0" />
      <path
         inkscape:connector-curvature="0"
         id="path4256"
         d="m 1024.9687,436.47 -218.23628,200.80664 3.83008,4.16211 214.4062,-197.28125 0,-7.6875 z"
         style="opacity:1;fill:#0000fd;fill-opacity:1;fill-rule:nonzero;stroke:none;stroke-width:2;stroke-linecap:butt;stroke-linejoin:miter;stroke-miterlimit:4;stroke-dasharray:none;stroke-opacity:0.38207547" />
    </g>
    <g
       id="g5254">
      <text
         sodipodi:linespacing="125%"
         id="text3418"
         y="1037.1049"
         x="783.28424"
         style="font-style:normal;font-variant:normal;font-weight:bold;font-stretch:normal;font-size:25px;line-height:125%;font-family:Arial;-inkscape-font-specification:'Arial Bold';letter-spacing:0px;word-spacing:0px;fill:#ffffff;fill-opacity:1;stroke:none;stroke-width:1px;stroke-linecap:butt;stroke-linejoin:miter;stroke-opacity:1"
         xml:space="preserve"><tspan
           style="font-style:normal;font-variant:normal;font-weight:300;font-stretch:normal;font-family:'Noto Sans CJK SC';-inkscape-font-specification:'Noto Sans CJK SC Light'"
           y="1037.1049"
           x="783.28424"
           id="tspan3420"
           sodipodi:role="line">made by </tspan></text>
      <g
         id="g5250">
        <path
           sodipodi:nodetypes="zzczzzzzzzczccccccszcccccczccccsczccczccczccccczscccczcczsczcccssssccsssscccccccccccsczccccccccccc"
           inkscape:connector-curvature="0"
           id="path5161"
           style="fill:#ffffff"
           d="m 947.36894,1028.5011 c 1.36345,0.962 0.98945,3.1852 -0.18529,4.2993 -1.17474,1.1142 -2.51532,1.1307 -3.15523,0.6825 -1.37102,-1.2962 -1.01272,-1.7626 -0.54387,-3.4451 0.46884,-1.6825 2.52094,-2.4987 3.88439,-1.5367 z m 32.18273,-1.9609 c 2.71425,0.1435 4.06186,1.2027 3.6171,3.7563 -0.44477,2.5537 -2.42243,4.5451 -4.67618,4.6666 -2.25374,0.1215 -3.79898,-1.7261 -3.7266,-3.2488 0.0724,-1.5227 2.07143,-5.3176 4.78568,-5.1741 z m -46.43302,-2.9937 c -1.49712,0.036 -2.96385,0.1545 -4.67109,1.5665 -1.70724,1.4119 -0.75711,0.6645 -0.75711,0.6645 0.19785,-0.6267 0.2869,-1.2567 0.4215,-1.9057 -1.8531,-0.032 -4.02304,-0.083 -5.57333,-0.049 -1.51661,6.9928 -1.74706,8.0877 -3.18253,13.9899 2.94168,-0.1057 3.89164,-0.1461 6.12301,-0.1513 0.52341,-2.7672 0.81815,-5.247 2.16907,-7.5702 0.75398,-1.2425 1.95724,-1.8152 2.83431,-1.6008 1.24806,0.3051 1.28752,1.1534 0.97989,2.411 -0.30763,1.2576 -1.06779,4.8378 -1.47356,6.9174 1.31331,-0.028 4.04636,0.076 5.70907,0.032 0.44579,-2.1157 1.09356,-4.9904 1.55096,-7.0071 1.02745,-4.4928 0.92368,-5.3441 -0.79859,-6.5529 -1.25055,-0.6696 -2.16038,-0.7489 -3.3316,-0.7442 z m 46.76926,-0.2871 c -4.34421,-0.1553 -8.32488,5.0144 -8.29745,9.0192 0.0274,4.0047 2.73459,6.0202 6.24011,6.0442 5.41033,-0.1934 7.6473,-4.7889 8.20894,-7.5329 0.96329,-4.8177 -2.27666,-7.4692 -6.1516,-7.5305 z m -11.53505,-0.1053 c -1.60993,0.012 -3.23002,0.4755 -4.55322,1.3541 -2.26091,1.5011 -3.5996,4.1777 -3.59404,7.1853 0.40881,3.0876 2.14269,5.3721 4.66456,6.3242 2.52187,0.9521 5.10869,-0.055 6.56131,-0.791 -0.0853,-0.6996 0.0309,-1.9498 0.0879,-3.1021 -1.62736,0.7517 -3.2547,1.4358 -5.47179,0.6262 -2.68867,-1.0268 -3.04544,-4.1362 -1.19427,-6.5108 1.85117,-2.3746 4.65729,-1.5111 7.30274,-0.8196 0.0558,-1.1903 0.11126,-2.1833 0.24739,-3.3432 -1.30561,-0.5312 -2.80941,-0.9245 -4.05061,-0.9231 z m 27.07265,-0.019 c -1.57533,-0.2219 -3.85999,0.8667 -4.88947,2.1941 0.14201,-0.5379 0.1753,-0.7965 0.40198,-1.5235 -0.87181,0.042 -1.80252,-0.051 -3.28131,0.11 -1.18586,5.8245 -1.5229,7.4772 -2.95731,14.2055 1.78786,0.027 2.08159,-0 3.33498,-0.02 0.99707,-5.1072 1.41863,-6.8994 2.22555,-9.1197 0.80692,-2.2203 1.83994,-2.3413 3.02253,-2.3413 1.39598,0 2.04372,0.789 1.56279,2.3433 -0.77115,2.4314 -1.89097,6.6697 -2.37614,9.0177 1.52876,-0.032 2.37757,-0.055 3.20041,-0.01 0.89688,-3.4369 1.9313,-8.5875 4.17671,-10.6238 1.28657,-1.1324 2.45357,-1.2276 3.03487,-0.3786 0.5814,0.8491 -2.0317,8.6564 -2.7467,10.9914 1.189,-0.045 2.753,0 3.6779,0.018 0.7418,-3.1326 3.6425,-11.2569 2.3538,-13.2532 -1.2887,-1.9963 -4.1478,-2.0097 -6.64954,0.2495 -0.68985,0.623 -1.18884,0.9606 -1.10897,0.7505 -0.0551,-1.6088 -1.40675,-2.3885 -2.98208,-2.6104 z m -93.22357,-3.6649 c -2.53651,0 -5.35919,0.017 -7.55053,0.053 -0.0658,0.1065 -0.19166,0.4826 -0.27955,0.8359 -0.71649,2.8608 -2.14424,9.6647 -2.14424,9.6647 l 2.98128,0 c 2.50837,0 3.06946,0.058 3.53717,0.3636 1.07166,0.701 0.57774,2.149 -0.95478,2.7995 -1.43767,0.6103 -2.0385,0.3832 -4.2853,0.2095 -2.57315,-0.199 -0.99334,-0.1447 -2.63565,-0.2263 -0.0134,0.7961 -0.0105,4.0602 -0.0252,4.3421 1.78834,0.4483 2.11317,0.6068 5.51681,0.765 3.40365,0.1581 8.27789,-2.3607 9.48973,-4.665 1.21183,-2.3042 0.96973,-3.7151 0.0601,-5.214 -0.90966,-1.4989 -3.64068,-2.1161 -5.03542,-2.1679 -1.6351,-0.061 -1.58756,-0.014 -1.58756,-0.014 l 0.63638,-2.447 c 2.60514,-0.1036 3.98527,-0.1282 7.21652,-0.1486 0.46606,-1.336 0.71522,-3.6047 0.8931,-4.1267 -1.04599,-0.015 -3.2963,-0.026 -5.8328,-0.024 z m 43.64816,0.02 c -1.99198,0.01 -4.75553,-0.019 -5.47334,-0.012 -1.60786,7.017 -2.14096,9.6472 -4.14798,18.452 1.84896,-0.01 3.28267,0.01 5.23544,-0.011 0.1799,-0.551 0.28855,-1.0035 0.41498,-1.5863 0.79352,1.8226 2.85947,1.9874 4.17491,1.9433 2.1005,-0.076 3.6441,-0.7442 5.11713,-2.2152 1.80172,-1.7991 3.05487,-5.2495 2.82549,-7.7792 -0.22872,-1.8326 -1.38541,-3.9441 -3.25124,-4.4774 -1.86584,-0.5333 -3.8723,-0.1809 -5.76947,-0.2182 0.29854,-1.4569 0.602,-2.7537 0.87408,-4.0959 z m -31.27167,-0.1719 c -1.77522,1.0574 -2.1776,1.4027 -3.84315,2.4306 -0.28707,1.3138 -0.74497,3.42 -1.23312,5.3818 1.45526,-0.853 2.72566,-1.6087 4.10547,-2.3509 -1.0384,4.3251 -2.44278,9.4123 -3.12026,13.0914 2.43494,-0.056 3.17158,-0.034 5.61814,-0.02 1.09176,-4.8203 3.61993,-15.304 4.39744,-18.4901 -1.97533,-0.014 -3.81201,-0.012 -5.92452,-0.042 z" />
        <path
           style="fill:#fd0201;fill-opacity:1"
           d="m 956.4874,1033.5041 a 2.2784866,2.2784866 0 0 0 -2.27841,2.2788 2.2784866,2.2784866 0 0 0 2.27841,2.2784 2.2784866,2.2784866 0 0 0 2.27842,-2.2784 2.2784866,2.2784866 0 0 0 -2.27842,-2.2788 z"
           id="path5092"
           inkscape:connector-curvature="0" />
      </g>
    </g>
  </g>
</svg>
